<svg width="595" height="127" viewBox="0 0 595 127" fill="none" xmlns="http://www.w3.org/2000/svg">
<path d="M426.729 99.1596C444.007 111.73 472.299 98.2496 476.392 93.2655C480.238 110.089 492.308 124.608 501.959 104.469C503.721 130.198 536.097 129.508 526.191 106.387C549.797 113.575 577.621 106.784 594.999 86.7886L594.999 0.988355H0.00671601V86.7886C0.00671601 86.7886 13.0065 128.06 20.3004 102.289C33.7751 125.314 40.0034 102.292 23.5673 89.2736C47.0077 101.456 48.0127 102.289 57.5126 86.7886C54.5126 109.236 68.3524 104.36 88.9789 83.1774C66.559 138.713 129.099 141.754 122.328 86.3508C133.512 117.717 193.511 106.742 200.511 84.7933C204.51 116.719 244.767 117.555 250.771 95.7745C278.009 147.148 292.724 95.5006 292.681 95.3602C317.509 108.855 316.143 93.7313 319.435 87.2363C321.502 105.23 335.424 109.674 351.867 101.681C342.763 127.228 370.673 126.746 379.517 104.391C393.256 134.464 443.018 135.877 426.729 99.1596Z" fill="#ADD6B1"/>
<path fill-rule="evenodd" clip-rule="evenodd" d="M109.012 34.9088C140.511 70.8252 139.511 41.3937 106.964 17.5037C88.0118 33.4123 66.5121 70.3263 106.306 31.4169C86.0122 85.292 115.012 89.7817 109.012 34.9088Z" fill="#94CAA4" fill-opacity="0.3"/>
<path fill-rule="evenodd" clip-rule="evenodd" d="M464.764 40.3431C459.291 52.6641 483.715 44.8946 488.024 35.9527C488.035 35.9192 488.075 35.7112 488.082 35.7563C489.067 41.759 488.526 49.5514 491.717 55.7386C493.802 59.2984 497.17 62.0408 501.227 63.2864C507.503 65.2125 512.146 60.2083 509.368 53.1658C505.473 43.2955 496.573 38.7677 489.824 31.2861C486.941 28.301 488.517 29.4232 487.611 27.6491C483.99 30.6156 482.136 31.7608 477.775 33.2807C473.929 34.3131 466.731 35.9173 464.764 40.3431Z" fill="#94CAA4" fill-opacity="0.3"/>
<path d="M268.58 44.8464C269.223 44.0674 269.728 44.3979 269.728 44.3979C270.686 47.1904 278.929 69.7646 284.969 61.3595C289.518 55.0289 277.878 49.8984 274.413 47.0147C268.791 40.9674 270.197 35.6945 267.027 28.9992C266.654 28.2131 266.082 27.9129 265.341 27.4904C268.423 43.2454 255.614 44.3969 249.655 56.1778C243.466 68.4112 266.96 57.4669 266.435 40.2408C265.341 77.847 278.324 89.8193 268.58 44.8464Z" fill="#94CAA4" fill-opacity="0.3"/>
<path fill-rule="evenodd" clip-rule="evenodd" d="M395.355 56.5696C409.642 68.3209 420.43 59.8091 413.322 52.172C403.806 41.9481 389.134 40.4397 380.949 28.8283C379.958 31.8963 382.355 34.9515 383.372 37.6849C386.4 44.2865 389.579 51.8196 395.355 56.5696Z" fill="#94CAA4" fill-opacity="0.3"/>
<path fill-rule="evenodd" clip-rule="evenodd" d="M379.574 33.0332C373.094 41.4511 354.411 50.634 353.048 60.3701C352.537 64.0248 353.38 66.3099 356.864 67.0409C371.272 70.0649 378.159 43.2296 379.574 33.0332Z" fill="#94CAA4" fill-opacity="0.3"/>
<path fill-rule="evenodd" clip-rule="evenodd" d="M386.873 55.4398C386.79 55.0751 386.73 54.479 386.66 54.0849C384.674 60.3229 390.616 82.4012 400.286 82.9963C412.017 83.7186 388.19 61.2538 386.873 55.4398Z" fill="#94CAA4" fill-opacity="0.3"/>
</svg>
