<svg width="4729" height="3547" viewBox="0 0 4729 3547" fill="none" xmlns="http://www.w3.org/2000/svg">
<g clip-path="url(#clip0_147_2275)">
<path d="M0 0H932.094H1616.32H3481.86H3674.28H4729V70.6316V72.3513V100.678V173.558V195.967V224.125V255.298C4722.73 251.219 4716.42 246.281 4708.5 244.218C4656.78 233.519 4683.92 144.361 4627.65 89.3101C4558.66 141.92 4533.72 134.795 4458.05 101.646C4438.92 93.2663 4420.73 83.7974 4400.27 77.2434C4248.15 28.5105 4056.46 32.4522 3897.86 59.2491C3517.25 123.554 3387.75 292.128 3118.94 411.194C3033.55 449.026 2928.41 463.373 2833.01 438.47C2668.45 395.517 2494.78 393.026 2331.49 359.29C2334.04 417.896 2326.48 496.772 2270.39 541.783C2251.51 556.937 2228.58 565.38 2201 566.737C2190.29 551.873 2181.54 535.961 2171.15 520.901C2006.04 277.174 1910.47 268.711 1684.98 299.745C1689.36 303.739 1694.2 307.716 1698.11 311.967C1699.63 315.397 1701.33 318.133 1700.94 321.795C1642.65 329.412 1582.49 320.373 1532.65 287.648C1505.91 264.876 1485.16 242.349 1464.82 216.178C1411.08 234.162 1355.61 248.583 1301.43 265.7C1212.88 293.529 1132 291 1055.91 241.237C1030.4 219.897 1005.03 201.288 982.94 177.568C942.205 196.648 905.414 205.227 858.04 210.424C880.366 362.508 741 456 657.025 442.571L638.791 439.775C625.776 436.81 613.075 432.252 600.517 428.305C582.584 418.118 565.991 407.636 550.662 395.254C521.181 367.233 506.76 338.024 495.17 303.698C473.583 293.884 453.119 283.808 437.37 268.735C433.021 265.06 431.077 262.189 424.632 260.768C384.347 280.224 348.192 300.212 301.836 311.626C288.335 315.179 273.096 317.747 258.88 319.042C198.965 324.499 149.953 305.969 104.258 278.695C92.1221 268.998 81.0755 258.61 69.8843 248.303C60.8768 249.608 50.5648 250.348 41.9916 252.685C29.776 250.432 12.6653 252.598 0 253.217V248.303V0Z" fill="#2F6C65"/>
<path d="M301.836 311.626C348.192 300.212 384.347 280.224 424.632 260.768C431.077 262.189 433.021 265.06 437.37 268.735L436.963 272.085C436.476 275.713 435.442 279.03 434.345 282.57C422.206 321.754 424.044 368.89 441.995 406.957C456.145 436.964 475.255 461.514 470.921 494.642C466.589 527.762 444.24 563.45 425.387 593.369C429.619 611.433 437.108 727.206 431.84 741.612C432.37 759.606 436.235 776.542 435.13 794.845C434.304 801.468 432.034 807.935 429.971 814.393C424.889 830.303 415.841 857.966 396.157 867.025L392.261 866.018C383.787 850.267 394.58 826.7 396.525 810.087C398.106 796.583 398.692 782.662 396.768 769.161C393.701 747.636 381.161 728.626 371.209 708.596C359.606 685.241 352.671 660.963 351.847 636.007C350.704 601.425 364.961 569.542 372.224 535.868C376.512 515.984 376.966 496.629 369.143 477.208C368.901 476.873 368.603 476.557 368.417 476.202C340.586 423.134 313.059 400.324 303.119 339.301C301.72 330.71 298.375 319.93 301.836 311.626Z" fill="#3A9174"/>
<path d="M104.258 278.695C149.953 305.969 198.965 324.499 258.88 319.042C273.096 317.747 288.335 315.179 301.836 311.626C298.375 319.93 301.72 330.71 303.119 339.301C313.059 400.324 340.586 423.134 368.417 476.202C368.603 476.557 368.901 476.873 369.143 477.208C359.526 489.506 352.333 503.387 343.588 516.146C314.247 457.269 291.209 396.364 264.029 336.871C210.934 373.097 153.372 406.919 98.0703 441.281C98.2972 387.168 101.946 332.798 104.258 278.695Z" fill="#2E7B6D"/>
<path d="M0 253.217C12.6653 252.598 29.776 250.432 41.9916 252.685C73.2063 295.869 83.2312 343.721 64.7936 391.431C53.802 419.873 32.2695 446.37 0 463.921V253.217Z" fill="#3A9174"/>
<path d="M2624.46 3098.58C2626.37 3096.18 2628.64 3094.3 2631.09 3092.19C2638.33 3092.36 2639.45 3094.21 2644.79 3097.7C2738.44 3140 2889.5 3353.5 2859.23 3547H2757.31H2738.44H2706.12H2688.43H2651.59H2626.4H2512.96C2506.74 3530.64 2504.9 3511.42 2502.61 3494.53L2500.71 3479.11L2498.43 3449.99L2498.42 3435.3L2498.36 3399.57L2501.19 3367.78C2502.82 3357.03 2504.78 3346.32 2507.05 3335.63L2509.17 3319.9C2518.15 3291.37 2525.29 3263.12 2537.68 3235.23C2542.81 3222.93 2548.72 3210.94 2554.89 3198.91L2561.27 3186.66L2579.13 3157.57C2592.19 3137.14 2608.21 3117.66 2624.46 3098.58Z" fill="#59A891"/>
<path d="M2812.85 3293.52C2825.87 3323.12 2836.63 3352.59 2845.55 3383.02C2848.95 3399.42 2853.24 3415.98 2855.2 3432.5L2857.07 3447.29C2858.12 3455.57 2858.95 3463.86 2859.56 3472.17C2860.17 3480.48 2860.57 3488.8 2860.75 3497.11C2860.93 3505.43 2860.89 3513.75 2860.64 3522.07C2860.39 3530.38 2859.92 3538.69 2859.23 3547H2757.31H2738.44H2706.12C2700.33 3513.78 2691.31 3475.26 2698.36 3442.09C2711.59 3379.78 2744.36 3330.44 2812.85 3293.52Z" fill="#7EBC87"/>
<path d="M2857.07 3447.29C2858.12 3455.57 2858.95 3463.86 2859.56 3472.17C2860.17 3480.48 2860.57 3488.8 2860.75 3497.11C2860.93 3505.43 2860.89 3513.75 2860.64 3522.07C2860.39 3530.38 2859.92 3538.69 2859.23 3547H2757.31C2782.74 3504.27 2808.06 3476.5 2857.07 3447.29Z" fill="#7EBC87"/>
<path d="M2855.2 3432.5L2857.07 3447.29C2808.06 3476.5 2782.74 3504.27 2757.31 3547H2738.44C2743.49 3537.57 2748.65 3528.19 2754.64 3519.07C2773.84 3489.8 2811.38 3443.65 2855.2 3432.5Z" fill="#59A891"/>
<path d="M2507.05 3335.63C2565.7 3344.48 2604.84 3363.67 2638.31 3401.21C2680.71 3448.76 2685.14 3491.27 2688.43 3547H2651.59H2626.4H2512.96C2506.74 3530.64 2504.9 3511.42 2502.61 3494.53L2500.71 3479.11L2498.43 3449.99L2498.42 3435.3L2498.36 3399.57L2501.19 3367.78C2502.82 3357.03 2504.78 3346.32 2507.05 3335.63Z" fill="#7EBC87"/>
<path d="M2502.61 3494.53C2554.77 3504.14 2588.29 3518.56 2626.4 3547H2512.96C2506.74 3530.64 2504.9 3511.42 2502.61 3494.53Z" fill="#7EBC87"/>
<path d="M2500.71 3479.11C2564.02 3483.16 2611.39 3512.14 2651.59 3547H2626.4C2588.29 3518.56 2554.77 3504.14 2502.61 3494.53L2500.71 3479.11Z" fill="#59A891"/>
<path d="M2554.89 3198.91C2600.7 3221.1 2640.49 3251.85 2652.6 3293.29C2664.06 3332.52 2663.38 3374.83 2671.05 3414.76C2637.54 3373.67 2597.92 3334.65 2532.18 3322.78C2524.58 3321.41 2516.93 3320.58 2509.17 3319.9C2518.15 3291.37 2525.29 3263.12 2537.68 3235.23C2542.81 3222.93 2548.72 3210.94 2554.89 3198.91Z" fill="#7EBC87"/>
<path d="M2734.15 3175.95C2741.53 3184.19 2748.59 3192.58 2755.34 3201.12C2762.09 3209.66 2768.5 3218.34 2774.59 3227.15C2780.68 3235.96 2786.43 3244.9 2791.84 3253.96C2797.25 3263.02 2802.32 3272.19 2807.04 3281.46C2801.07 3282.09 2796.91 3283.57 2791.88 3285.95C2734.88 3312.9 2702.21 3369.84 2688.64 3417.31C2680.94 3380.3 2675.84 3341.59 2672.04 3304.23C2667.24 3256.96 2693.82 3211.25 2734.15 3175.95Z" fill="#7EBC87"/>
<path d="M2624.46 3098.58C2633.12 3113.5 2642.98 3222.23 2647.47 3248.31C2627.51 3225.71 2598.39 3194.36 2561.27 3186.66L2579.13 3157.57C2592.19 3137.14 2608.21 3117.66 2624.46 3098.58Z" fill="#7EBC87"/>
<path d="M2644.79 3097.7C2669.83 3115.41 2692.22 3133.85 2713.59 3154.14L2723.97 3164.45C2694.97 3177.48 2673.46 3223.28 2663.46 3245.86C2661.97 3226.79 2640.93 3104.86 2644.79 3097.7Z" fill="#7EBC87"/>
<path d="M2530.83 3078.73C2537.47 3079.27 2542.56 3079.81 2547.8 3083.39C2553.3 3087.15 2555.85 3092.23 2555.67 3097.71C2555.39 3106.52 2550.2 3112.01 2542.27 3118.12C2535.82 3117.72 2531.45 3117.01 2526.12 3114.07C2521.29 3111.39 2518.11 3106.19 2517.71 3101.81C2516.82 3091.96 2522.1 3085.58 2530.83 3078.73Z" fill="#ABD39C"/>
<path d="M1903.71 2934.43C1914.14 2916.63 1929.92 2898.51 1954.32 2890.16C1973.82 2883.48 1990.45 2886.08 2009.59 2891.67C2047.15 2912.23 2062.29 2941.58 2075.78 2973.86C2125.5 3010.5 2212.84 2981.34 2165.06 3079.6C2162.01 3085.88 2159.66 3092.22 2157.49 3098.69C2156.39 3111.41 2155.81 3123.46 2157.95 3136.15C2165.97 3159.05 2178.16 3178.2 2206.08 3191.17C2210.88 3193.41 2216.19 3195.23 2221.28 3197.05C2246.47 3202.07 2267.96 3200.03 2293.63 3198.45C2315.38 3192.48 2338.53 3189.17 2360.6 3183.65C2369.42 3178.88 2378.67 3174.48 2387.71 3169.94C2389.93 3171.29 2393.01 3173.76 2395.53 3174.58C2401.21 3175.06 2405.29 3175.39 2410.51 3177.28C2437.11 3185.14 2461.95 3194.24 2485.65 3206.29L2500.36 3213.14C2513.13 3220.26 2525.68 3227.38 2537.68 3235.23C2525.29 3263.12 2518.15 3291.37 2509.17 3319.9L2507.05 3335.63C2504.78 3346.32 2502.82 3357.03 2501.19 3367.78L2498.36 3399.57L2498.42 3435.3L2498.43 3449.99L2500.71 3479.11L2502.61 3494.53C2504.9 3511.42 2506.74 3530.64 2512.96 3547H2484.27H2390.72H2277.52H2230.88H2210.46H2205.53H2083.03H2017.43H1973.02C1952.18 3532.94 1930.47 3516.75 1916.75 3498.27C1924.61 3491.93 1932.1 3486.74 1942.24 3482.53C1925.85 3454.77 1904.33 3435.28 1898.15 3403.57C1894.59 3385.25 1896 3364.47 1911.81 3349.36C1931.28 3330.75 1961.66 3329.07 1990.55 3326.83C1943.48 3309.3 1911.79 3278.68 1877.22 3250.2C1873.17 3242.44 1865.96 3235.23 1860.4 3227.98C1850.14 3214.57 1841.32 3200.29 1835.25 3185.5C1827.03 3165.49 1822.42 3141.58 1836.54 3122.47C1846.44 3109.06 1866.4 3096.05 1886.57 3092.5C1907.42 3088.83 1924.63 3096.24 1941.72 3104.05C1918.12 3064.81 1902.08 3025.04 1896.33 2982.13C1896.51 2965.79 1899.18 2950.39 1903.71 2934.43Z" fill="#2E7B6D"/>
<path d="M2387.71 3169.94C2389.93 3171.29 2393.01 3173.76 2395.53 3174.58C2401.21 3175.06 2405.29 3175.39 2410.51 3177.28C2437.11 3185.14 2461.95 3194.24 2485.65 3206.29L2500.36 3213.14C2513.13 3220.26 2525.68 3227.38 2537.68 3235.23C2525.29 3263.12 2518.15 3291.37 2509.17 3319.9L2507.05 3335.63C2504.78 3346.32 2502.82 3357.03 2501.19 3367.78L2498.36 3399.57L2498.42 3435.3L2498.43 3449.99L2500.71 3479.11L2502.61 3494.53C2504.9 3511.42 2506.74 3530.64 2512.96 3547H2484.27H2390.72H2277.52C2264.79 3507.03 2260.41 3460.53 2253.87 3419.5C2251.8 3406.49 2251.95 3390.05 2246.5 3377.76C2228.72 3378.37 2215.02 3376.71 2198.32 3372.52C2192.43 3369.65 2186.96 3366.57 2181.86 3362.93C2167.27 3352.52 2159.25 3337.22 2159.46 3322.2C2159.81 3297.01 2178.25 3278.39 2201.25 3261.69L2196.27 3258.65C2197.9 3249.68 2207.44 3226.52 2216.42 3221.04C2212.73 3214.53 2218.88 3203.75 2221.28 3197.05C2246.47 3202.07 2267.96 3200.03 2293.63 3198.45C2315.38 3192.48 2338.53 3189.17 2360.6 3183.65C2369.42 3178.88 2378.67 3174.48 2387.71 3169.94Z" fill="#3A9174"/>
<path d="M2327.32 3333.44C2335.61 3366.39 2323.73 3410.22 2315.13 3443.22C2312.11 3454.83 2305.91 3469.12 2306.36 3480.71C2306.53 3484.81 2309.77 3487.01 2312.79 3490.31C2321.74 3475.78 2354.04 3443.95 2353.01 3430.54C2350.72 3425.57 2350.43 3420.25 2349.63 3415.04C2360.9 3411.51 2371.5 3409.36 2383.39 3407.46C2384.11 3407.07 2384.76 3406.59 2385.55 3406.3C2392.59 3403.67 2395.84 3404.77 2402.98 3405.87C2420.91 3407.49 2438.54 3409.53 2455.46 3414.49C2467.98 3418.98 2492.23 3425.73 2498.42 3435.3L2498.43 3449.99L2500.71 3479.11L2502.61 3494.53C2504.9 3511.42 2506.74 3530.64 2512.96 3547H2484.27H2390.72H2277.52C2264.79 3507.03 2260.41 3460.53 2253.87 3419.5C2251.8 3406.49 2251.95 3390.05 2246.5 3377.76L2260.77 3375.42C2269.54 3373.37 2277.63 3370.4 2285.9 3367.45C2303.12 3357.22 2315.72 3347.49 2327.32 3333.44Z" fill="#59A891"/>
<path d="M2402.98 3405.87C2420.91 3407.49 2438.54 3409.53 2455.46 3414.49C2467.98 3418.98 2492.23 3425.73 2498.42 3435.3L2498.43 3449.99L2500.71 3479.11L2502.61 3494.53C2504.9 3511.42 2506.74 3530.64 2512.96 3547H2484.27H2390.72C2408.23 3509.15 2406.57 3461.13 2401.63 3421.83C2400.57 3418.08 2399.65 3414.88 2399.6 3411.03C2399.56 3407.65 2400.14 3408.11 2402.98 3405.87Z" fill="#59A891"/>
<path d="M2463.39 3434.12C2476.34 3438.43 2486.96 3443.83 2498.43 3449.99L2500.71 3479.11L2502.61 3494.53C2504.9 3511.42 2506.74 3530.64 2512.96 3547H2484.27C2474.49 3509.75 2464.73 3472.17 2463.39 3434.12Z" fill="#3A9174"/>
<path d="M2402.98 3405.87C2420.91 3407.49 2438.54 3409.53 2455.46 3414.49C2467.98 3418.98 2492.23 3425.73 2498.42 3435.3L2498.43 3449.99C2486.96 3443.83 2476.34 3438.43 2463.39 3434.12C2445.91 3425.46 2422 3423.19 2401.63 3421.83C2400.57 3418.08 2399.65 3414.88 2399.6 3411.03C2399.56 3407.65 2400.14 3408.11 2402.98 3405.87Z" fill="#3A9174"/>
<path d="M2327.32 3333.44C2335.61 3366.39 2323.73 3410.22 2315.13 3443.22C2312.11 3454.83 2305.91 3469.12 2306.36 3480.71C2306.53 3484.81 2309.77 3487.01 2312.79 3490.31C2303 3506.79 2295.93 3523.58 2289.56 3540.97C2279.76 3488.65 2270.74 3436.25 2262.5 3383.78L2260.77 3375.42C2269.54 3373.37 2277.63 3370.4 2285.9 3367.45C2303.12 3357.22 2315.72 3347.49 2327.32 3333.44Z" fill="#2E7B6D"/>
<path d="M2260.77 3375.42C2269.54 3373.37 2277.63 3370.4 2285.9 3367.45C2289.58 3370.62 2289.77 3369.59 2289.48 3374.2C2282.23 3379.61 2271.9 3381.22 2262.5 3383.78L2260.77 3375.42Z" fill="#3A8378"/>
<path d="M2349.63 3415.04C2360.9 3411.51 2371.5 3409.36 2383.39 3407.46C2375.08 3416.64 2367.22 3426.11 2353.01 3430.54C2350.72 3425.57 2350.43 3420.25 2349.63 3415.04Z" fill="#3A9174"/>
<path d="M2201.25 3261.69C2207.26 3258.81 2213.3 3255.95 2219.73 3253.62C2246.67 3243.86 2270.3 3244.62 2297.85 3251.75C2317.06 3262.61 2332.72 3274.46 2336.5 3293.25C2339.19 3306.6 2334.4 3321.17 2327.32 3333.44C2315.72 3347.49 2303.12 3357.22 2285.9 3367.45C2277.63 3370.4 2269.54 3373.37 2260.77 3375.42L2246.5 3377.76C2228.72 3378.37 2215.02 3376.71 2198.32 3372.52C2192.43 3369.65 2186.96 3366.57 2181.86 3362.93C2167.27 3352.52 2159.25 3337.22 2159.46 3322.2C2159.81 3297.01 2178.25 3278.39 2201.25 3261.69Z" fill="#D07E7A"/>
<path d="M2250.85 3287.44C2256.12 3287.87 2261.69 3288.2 2266.68 3289.6C2272.84 3291.34 2278.82 3294.39 2280.6 3299.43C2282.27 3304.15 2279.88 3308.9 2276.74 3312.93C2267.79 3324.45 2255.42 3328.75 2238.99 3332.34C2234.49 3332.36 2230.04 3332.02 2225.63 3331.31C2217.64 3330.03 2213.21 3327.54 2208.56 3322.49C2206.34 3315.6 2207.53 3311.52 2212.43 3305.68C2221.78 3294.53 2234.35 3290.48 2250.85 3287.44Z" fill="#B04648"/>
<path d="M2360.6 3183.65L2379.71 3182.33C2365.77 3213.43 2358.64 3246.31 2351.59 3278.61L2350.31 3293.71C2343.63 3333.57 2344.52 3375.11 2349.63 3415.04C2350.43 3420.25 2350.72 3425.57 2353.01 3430.54C2354.04 3443.95 2321.74 3475.78 2312.79 3490.31C2309.77 3487.01 2306.53 3484.81 2306.36 3480.71C2305.91 3469.12 2312.11 3454.83 2315.13 3443.22C2323.73 3410.22 2335.61 3366.39 2327.32 3333.44C2334.4 3321.17 2339.19 3306.6 2336.5 3293.25C2332.72 3274.46 2317.06 3262.61 2297.85 3251.75C2270.3 3244.62 2246.67 3243.86 2219.73 3253.62C2213.3 3255.95 2207.26 3258.81 2201.25 3261.69L2196.27 3258.65C2197.9 3249.68 2207.44 3226.52 2216.42 3221.04C2212.73 3214.53 2218.88 3203.75 2221.28 3197.05C2246.47 3202.07 2267.96 3200.03 2293.63 3198.45C2315.38 3192.48 2338.53 3189.17 2360.6 3183.65Z" fill="#245268"/>
<path d="M2196.27 3258.65C2206.11 3252.83 2215.63 3246.53 2226.61 3241.94C2240.03 3236.33 2256.51 3231.06 2272.01 3234.62C2283.67 3237.29 2292.32 3243.82 2297.85 3251.75C2270.3 3244.62 2246.67 3243.86 2219.73 3253.62C2213.3 3255.95 2207.26 3258.81 2201.25 3261.69L2196.27 3258.65Z" fill="#3A8378"/>
<path d="M2221.28 3197.05C2246.47 3202.07 2267.96 3200.03 2293.63 3198.45C2268.75 3207.51 2241.9 3213.03 2216.42 3221.04C2212.73 3214.53 2218.88 3203.75 2221.28 3197.05Z" fill="#359099"/>
<path d="M2350.31 3293.71C2396.35 3295.45 2428.66 3309.46 2459.38 3334.58C2459.95 3335.05 2460.5 3335.53 2461.05 3336.01C2477.68 3355.7 2482.29 3380.35 2498.36 3399.57L2498.42 3435.3C2492.23 3425.73 2467.98 3418.98 2455.46 3414.49C2438.54 3409.53 2420.91 3407.49 2402.98 3405.87C2395.84 3404.77 2392.59 3403.67 2385.55 3406.3C2384.76 3406.59 2384.11 3407.07 2383.39 3407.46C2371.5 3409.36 2360.9 3411.51 2349.63 3415.04C2344.52 3375.11 2343.63 3333.57 2350.31 3293.71Z" fill="#59A891"/>
<path d="M2461.05 3336.01C2477.68 3355.7 2482.29 3380.35 2498.36 3399.57L2498.42 3435.3C2492.23 3425.73 2467.98 3418.98 2455.46 3414.49L2457.86 3413.54C2463.26 3405.49 2457.64 3351.34 2461.05 3336.01Z" fill="#3A9174"/>
<path d="M2500.36 3213.14C2513.13 3220.26 2525.68 3227.38 2537.68 3235.23C2525.29 3263.12 2518.15 3291.37 2509.17 3319.9L2507.05 3335.63C2504.78 3346.32 2502.82 3357.03 2501.19 3367.78C2500.28 3366.89 2499.11 3365.79 2498.28 3364.8C2469.79 3330.87 2474.53 3284.6 2486.9 3247.36C2490.59 3236.28 2496.72 3225.79 2499.95 3214.64C2500.09 3214.14 2500.23 3213.64 2500.36 3213.14Z" fill="#3A9174"/>
<path d="M2379.71 3182.33C2380.93 3182.87 2382.39 3183.18 2383.39 3183.94C2384.81 3185 2442.14 3294.71 2448.62 3306.65C2417.39 3289.68 2391.44 3278.75 2351.59 3278.61C2358.64 3246.31 2365.77 3213.43 2379.71 3182.33Z" fill="#59A891"/>
<path d="M2395.53 3174.58C2401.21 3175.06 2405.29 3175.39 2410.51 3177.28C2437.11 3185.14 2461.95 3194.24 2485.65 3206.29C2469.27 3222.48 2463.6 3276.47 2461.04 3297.97C2441.53 3256.62 2419.59 3214.56 2395.53 3174.58Z" fill="#59A891"/>
<path d="M2048.77 3258.64C2011.33 3240.51 1968.04 3228.75 1929.31 3212.11C1917.3 3206.95 1905.88 3200.82 1902.05 3190.43C1903.09 3186.06 1903.06 3185.87 1907.37 3182.86C1940.59 3178.17 1992.63 3213 2027.87 3219.26C2029.4 3218.87 2031.59 3219.11 2032.45 3218.09C2035.58 3214.39 2027.49 3195.66 2025.8 3190.97C2012.58 3154.21 1945.15 2986.5 1965.15 2962.88C1967.02 2960.67 1968.97 2960.88 1972.09 2960.23C1979.12 2961.73 1982.61 2963.76 1985.09 2968.92C1994.17 2987.83 1994.54 3011.01 1999.64 3031C2005.78 3055.01 2050.52 3192.26 2063 3205.94C2087.84 3210.71 2130.15 3105.49 2157.49 3098.69C2156.39 3111.41 2155.81 3123.46 2157.95 3136.15C2165.97 3159.05 2178.16 3178.2 2206.08 3191.17C2210.88 3193.41 2216.19 3195.23 2221.28 3197.05C2218.88 3203.75 2212.73 3214.53 2216.42 3221.04C2207.44 3226.52 2197.9 3249.68 2196.27 3258.65L2201.25 3261.69C2178.25 3278.39 2159.81 3297.01 2159.46 3322.2C2159.25 3337.22 2167.27 3352.52 2181.86 3362.93C2186.96 3366.57 2192.43 3369.65 2198.32 3372.52L2191.08 3375.05L2189.96 3378.59C2193.25 3381.9 2196.29 3385.1 2199.07 3388.68C2198.88 3389.5 2198.67 3390.32 2198.5 3391.15C2197.84 3394.39 2197.79 3397.39 2197.82 3400.66L2195.16 3402.31L2182.67 3398.42L2180.53 3399.31C2181.53 3402.58 2182.36 3405.5 2183.99 3408.63C2169.01 3401.39 2154.44 3401.06 2137.28 3402.67C2130.05 3405 2122.86 3407.4 2115.72 3409.89L2111.02 3407.7C2112.64 3394.08 2059.87 3275.47 2048.77 3258.64Z" fill="#3A9174"/>
<path d="M2157.95 3136.15C2165.97 3159.05 2178.16 3178.2 2206.08 3191.17C2210.88 3193.41 2216.19 3195.23 2221.28 3197.05C2218.88 3203.75 2212.73 3214.53 2216.42 3221.04C2207.44 3226.52 2197.9 3249.68 2196.27 3258.65L2201.25 3261.69C2178.25 3278.39 2159.81 3297.01 2159.46 3322.2C2159.25 3337.22 2167.27 3352.52 2181.86 3362.93C2186.96 3366.57 2192.43 3369.65 2198.32 3372.52L2191.08 3375.05L2189.96 3378.59C2193.25 3381.9 2196.29 3385.1 2199.07 3388.68C2198.88 3389.5 2198.67 3390.32 2198.5 3391.15C2197.84 3394.39 2197.79 3397.39 2197.82 3400.66L2195.16 3402.31L2182.67 3398.42L2180.53 3399.31C2181.53 3402.58 2182.36 3405.5 2183.99 3408.63C2169.01 3401.39 2154.44 3401.06 2137.28 3402.67L2141.92 3397.96C2129.37 3384.76 2085.32 3269.43 2080.83 3249.98C2089.61 3224.08 2156.2 3147.91 2157.95 3136.15Z" fill="#2E7B6D"/>
<path d="M2198.32 3372.52C2215.02 3376.71 2228.72 3378.37 2246.5 3377.76C2251.95 3390.05 2251.8 3406.49 2253.87 3419.5C2260.41 3460.53 2264.79 3507.03 2277.52 3547H2230.88H2210.46H2205.53C2193.89 3541.21 2179.99 3537.34 2166.95 3533.7C2165.86 3528.34 2164.36 3523.02 2162.99 3517.69C2160.65 3511.2 2156.35 3506.01 2151.81 3500.26C2145.07 3499.41 2139.1 3499.08 2133.59 3495.76L2133.45 3492.06C2142.56 3490.42 2150.49 3488.03 2158.98 3485.08L2171.46 3478.69C2186.11 3467.03 2196.45 3456.68 2198.61 3440.23C2198.81 3439.44 2199.09 3438.66 2199.23 3437.86C2201.33 3425.92 2193.59 3417.44 2183.99 3408.63C2182.36 3405.5 2181.53 3402.58 2180.53 3399.31L2182.67 3398.42L2195.16 3402.31L2197.82 3400.66C2197.79 3397.39 2197.84 3394.39 2198.5 3391.15C2198.67 3390.32 2198.88 3389.5 2199.07 3388.68C2196.29 3385.1 2193.25 3381.9 2189.96 3378.59L2191.08 3375.05L2198.32 3372.52Z" fill="url(#paint0_linear_147_2275)"/>
<path d="M2158.98 3485.08L2163.72 3491.46C2179.01 3510.1 2195.38 3528.29 2210.46 3547H2205.53C2193.89 3541.21 2179.99 3537.34 2166.95 3533.7C2165.86 3528.34 2164.36 3523.02 2162.99 3517.69C2160.65 3511.2 2156.35 3506.01 2151.81 3500.26C2145.07 3499.41 2139.1 3499.08 2133.59 3495.76L2133.45 3492.06C2142.56 3490.42 2150.49 3488.03 2158.98 3485.08Z" fill="#3A9174"/>
<path d="M2171.46 3478.69C2190.77 3501 2214.26 3523.65 2230.88 3547H2210.46C2195.38 3528.29 2179.01 3510.1 2163.72 3491.46L2158.98 3485.08L2171.46 3478.69Z" fill="#4DA39A"/>
<path d="M2137.28 3402.67C2154.44 3401.06 2169.01 3401.39 2183.99 3408.63C2193.59 3417.44 2201.33 3425.92 2199.23 3437.86C2199.09 3438.66 2198.81 3439.44 2198.61 3440.23C2196.45 3456.68 2186.11 3467.03 2171.46 3478.69L2158.98 3485.08C2150.49 3488.03 2142.56 3490.42 2133.45 3492.06C2119.84 3492.42 2109.6 3490.96 2096.98 3486.99C2096.1 3486.27 2095.25 3485.53 2094.35 3484.83C2091.76 3482.79 2088.95 3480.99 2086.71 3478.7C2078.56 3470.33 2077.17 3457.22 2079.28 3447.28C2081.87 3435.04 2092.7 3423.62 2105.8 3416.38L2115.72 3409.89C2122.86 3407.4 2130.05 3405 2137.28 3402.67Z" fill="#D07E7A"/>
<path d="M2136.41 3430.72C2142.1 3430.6 2148.08 3430.42 2153.12 3432.87C2157.54 3435.02 2160.17 3438.26 2160.37 3442.24C2160.82 3451.1 2151.32 3457.37 2143.07 3462.41C2134.95 3462.96 2130.48 3462.97 2123.02 3460.37C2119.29 3457.1 2116.86 3455.59 2117.1 3450.93C2117.59 3441.46 2127.09 3435.8 2136.41 3430.72Z" fill="#B04648"/>
<path d="M1942.24 3482.53C1968.26 3503.45 1990.39 3526.45 2017.43 3547H1973.02C1952.18 3532.94 1930.47 3516.75 1916.75 3498.27C1924.61 3491.93 1932.1 3486.74 1942.24 3482.53Z" fill="#28605E"/>
<path d="M2067.07 3523.54C2101.82 3523.26 2133.66 3526.13 2166.95 3533.7C2179.99 3537.34 2193.89 3541.21 2205.53 3547H2083.03C2076.94 3539.53 2072.16 3531.42 2067.07 3523.54Z" fill="#4DA39A"/>
<path d="M2096.98 3486.99C2109.6 3490.96 2119.84 3492.42 2133.45 3492.06L2133.59 3495.76C2139.1 3499.08 2145.07 3499.41 2151.81 3500.26C2156.35 3506.01 2160.65 3511.2 2162.99 3517.69C2144.36 3493.89 2110.14 3509.79 2091.18 3493.44C2092.41 3489.71 2093.46 3489.59 2096.98 3486.99Z" fill="#3A8378"/>
<path d="M4334.65 2592.22C4343.6 2568.7 4358.98 2546.42 4386.38 2532.03C4405.16 2522.18 4428.58 2517 4451.4 2520.18C4489.71 2525.51 4511.86 2549.03 4532.18 2571.52C4568.3 2611.5 4604.5 2647.17 4604.5 2707L4729 2625.79V2647.17V3448.79C4721.8 3447.47 4714.79 3445.78 4707.81 3443.93C4595.48 3414.09 4495.17 3344.57 4443.86 3264.3C4467.7 3243.12 4488.84 3219.74 4501.46 3193.53C4509.86 3176.1 4516.26 3154.74 4504.6 3137.36C4495.49 3123.77 4478.88 3117.77 4460.73 3113.02C4448.03 3116.27 4436.79 3119.91 4425.1 3124.85C4433.09 3109.19 4439.97 3093.74 4446.12 3077.62C4451.68 3057.54 4456.56 3036.52 4453.79 3015.95C4451.45 2998.56 4442.93 2983.71 4424.42 2972.68C4413.91 2966.41 4403.9 2963.12 4390.26 2964.52C4359.09 2967.74 4352.38 2984.22 4336.23 3000.61L4334.29 3002.55C4329.38 2996.74 4322.58 2991.43 4316.73 2986.11C4307.61 2971.85 4292.96 2957.61 4282.5 2943.59C4277.75 2934.63 4273.16 2925.62 4268.75 2916.57C4260.08 2894.87 4259.45 2875.62 4266.13 2853.56L4272.33 2843.62C4287.69 2826.18 4306.24 2808.28 4334.06 2801.93C4359.71 2796.08 4382 2802.47 4404.26 2811.71C4364.99 2757.07 4339.85 2702.1 4329.78 2640.52C4329.91 2624.38 4330.65 2608.11 4334.65 2592.22Z" fill="#3A8378"/>
<path d="M4446.12 3077.62C4465.81 3082.64 4484.86 3088.38 4503.9 3094.66C4488.35 3099.86 4474.39 3105.3 4460.73 3113.02C4448.03 3116.27 4436.79 3119.91 4425.1 3124.85C4433.09 3109.19 4439.97 3093.74 4446.12 3077.62Z" fill="#59A891"/>
<path d="M1728.96 3449C1728.85 3431.98 1730.61 3416.07 1742.02 3400.93C1748.92 3391.78 1759.24 3383.17 1773.26 3380.43C1783.88 3378.35 1794.45 3380.27 1803.71 3384.44C1859.71 3409.6 1883.84 3487.97 1897.78 3531.88C1903.71 3520.53 1910.65 3509.55 1916.75 3498.27C1930.47 3516.75 1952.18 3532.94 1973.02 3547H1814.46H1794.1H1764.63H1716.01H1628.95C1593.66 3523.81 1555 3499.83 1552.02 3461.75C1550.61 3443.7 1557.67 3423.11 1574.47 3409.68C1585.39 3400.94 1599.79 3395.95 1615.79 3395.8C1661.21 3395.36 1698.43 3427.52 1728.96 3449Z" fill="#2F6C65"/>
<path d="M1716.01 3547C1692.82 3532.72 1609.85 3483.07 1608.26 3462.86C1608.05 3460.16 1609.16 3457.86 1610.34 3455.36C1613.62 3453.7 1613.28 3452.94 1616.52 3453.6C1627.65 3455.87 1645.82 3475.17 1654.63 3481.65C1687.04 3505.49 1726.73 3528.08 1764.63 3547H1716.01Z" fill="#2E7B6D"/>
<path d="M1794.1 3547C1793.81 3531.35 1789.26 3470.63 1792.44 3460.27C1793.69 3456.19 1796.03 3453.83 1799.27 3450.53L1803.43 3450.14C1818.29 3464.15 1814.26 3526.65 1814.46 3547H1794.1Z" fill="#2E7B6D"/>
<path d="M1120.02 3413.42C1169.92 3390.03 1227.25 3379.4 1285.53 3377.06C1297.48 3376.57 1312.85 3375.05 1324.56 3377.43C1330.9 3378.72 1333.3 3380.26 1337.28 3384.06C1343.08 3406.62 1317.75 3480.81 1305.8 3502.47C1286.71 3504.01 1267.96 3505.02 1248.77 3505.21C1264.08 3517.26 1288.96 3529.44 1289.66 3547H1133.43H1115.74H928.326C937.51 3536.81 947.261 3526.94 957.582 3517.39C967.903 3507.84 978.753 3498.63 990.133 3489.78C1009.97 3474.34 1040.98 3458.68 1054.11 3439.98C1060.4 3438.29 1066.61 3436.79 1073.06 3435.5C1087.2 3441.11 1107.96 3500.61 1117.44 3515.18C1118.61 3481.41 1116.77 3447.08 1120.02 3413.42Z" fill="#2F6C65"/>
<path d="M1256.97 3438.47L1261.41 3442.03C1218.57 3476.09 1172.22 3510.35 1133.43 3547H1115.74C1160.75 3509.28 1208.96 3474.01 1256.97 3438.47Z" fill="#3A9174"/>
<path d="M502.827 3097.16C536.174 3115.66 566.885 3134.85 595.88 3157.22L579.34 3201.4L626.776 3184.51C642.944 3200.76 658.283 3217.45 672.791 3234.56C695.957 3232.43 649.545 3297.57 672.791 3296C674.436 3326.19 748.015 3311.32 740.098 3339.49L755.78 3373.69C757.412 3377.8 758.724 3382.12 761.197 3385.99C742.95 3438.37 729.007 3492.66 728.542 3547H709.911H700.571H657.597C612.768 3512.77 555.79 3485.63 497.225 3466.76C517.466 3461.42 607.752 3411.74 632.388 3399.68C582.605 3407.36 531.665 3412.9 481.4 3418.56C476.131 3393.44 470.565 3368.17 467.954 3342.81C494.558 3322.81 521.547 3303.1 548.919 3283.69C520.436 3280.22 492.073 3275.71 463.77 3271.5L466.286 3234.59C472.705 3187.45 483.261 3142.31 502.827 3097.16Z" fill="#2F6C65"/>
<path d="M700.571 3547C672.099 3451.88 630.077 3357.44 588.298 3265.22C579.314 3245.39 570.494 3225.42 560.634 3205.82C551.239 3187.15 538.154 3169.2 534.196 3149.2C541.806 3161.41 549.228 3173.68 556.462 3186.01C563.696 3198.35 570.741 3210.75 577.596 3223.2C584.452 3235.66 591.116 3248.17 597.588 3260.74C604.061 3273.31 610.341 3285.94 616.427 3298.62C622.515 3311.3 628.407 3324.03 634.104 3336.81C639.802 3349.59 645.304 3362.42 650.609 3375.29C655.915 3388.16 661.023 3401.08 665.933 3414.05C670.844 3427.01 675.556 3440.01 680.068 3453.06C690.979 3483.77 703.354 3515.58 709.911 3547H700.571Z" fill="#3A9174"/>
<path d="M348.537 3438.48C379.416 3441.19 409.189 3444.98 439.19 3451.17C438.694 3477.51 439.204 3503.86 438.58 3530.2L471.562 3459.06L497.226 3466.76C555.791 3485.63 612.769 3512.77 657.598 3547H443.809C419.22 3535.2 336.542 3504.52 324.305 3495.3C332.226 3476.32 340.303 3457.38 348.537 3438.48Z" fill="#2E7B6D"/>
<path d="M0 3516.52C30.1891 3522.81 119.684 3538.53 141.297 3547H0V3516.52Z" fill="#3B647F"/>
<path d="M166.283 3354.36C176.565 3317.54 192.231 3279.76 236.452 3257.86C262.599 3244.91 291.62 3242.42 322.028 3244.32C316.458 3282.6 303.201 3324.88 261.77 3350.7C233.449 3368.36 202.193 3371.42 166.869 3372.33C162.847 3366.29 164.867 3360.69 166.283 3354.36Z" fill="#3B647F"/>
<path d="M291.039 3439.09C301.412 3438.51 311.71 3437.86 322.121 3437.94C324.585 3456.79 319.758 3476.88 324.305 3495.3C336.542 3504.52 419.22 3535.2 443.809 3547H416.084H270.651C277.288 3536.05 282.64 3524.47 288.467 3513.25C268.461 3523.58 248.601 3534.07 228.887 3544.71C215.637 3527.36 204.823 3508.92 193.725 3490.76C212.986 3487.93 228.958 3484.13 246.049 3476.79L253.548 3473.83C267.644 3463.97 283.639 3452.68 291.039 3439.09Z" fill="#2E7B6D"/>
<path d="M291.038 3439.09C301.411 3438.51 311.709 3437.86 322.12 3437.94C319.64 3457.41 320.461 3477.27 320.3 3496.82C298.348 3488.8 275.083 3482.35 253.547 3473.83C267.643 3463.97 283.638 3452.68 291.038 3439.09Z" fill="#2E7B6D"/>
<path d="M322.12 3437.94C324.584 3456.79 319.757 3476.88 324.304 3495.3C336.541 3504.52 419.219 3535.2 443.808 3547H416.083C360.504 3521.68 304.982 3497.45 246.048 3476.79L253.547 3473.83C275.083 3482.35 298.348 3488.8 320.3 3496.82C320.461 3477.27 319.64 3457.41 322.12 3437.94Z" fill="#3A9174"/>
<path d="M74.946 3414.4C59.7838 3382.84 56.0718 3349.85 65.6359 3316.97C76.6023 3279.27 102.514 3250.44 145.518 3229.46C125.62 3287.37 109.452 3346.25 91.4235 3404.53C107.553 3396.21 122.571 3386.88 137.726 3377.61C132.916 3395.44 23.378 3473.08 0 3488.68V3456.95C22.6379 3448.73 54.1186 3426.66 74.946 3414.4Z" fill="#3B647F"/>
<path d="M165.037 3439.25C206.921 3439.49 249.207 3440.65 291.038 3439.09C283.638 3452.68 267.643 3463.97 253.547 3473.83L246.048 3476.79C228.957 3484.13 212.985 3487.93 193.724 3490.76L180.096 3489.7C140.512 3486.33 115.043 3470.62 91.2275 3448.38C92.6094 3446.11 94.4343 3443.9 96.9766 3442.24C106.457 3436.04 151.283 3439.48 165.037 3439.25Z" fill="#3B647F"/>
<path d="M137.726 3377.61C148.195 3370.61 157.086 3362.28 166.283 3354.36C164.867 3360.69 162.847 3366.29 166.869 3372.33C162.34 3390.55 119.153 3424.97 99.9649 3437.92C121.444 3438.13 143.709 3437.44 165.037 3439.25C151.283 3439.48 106.457 3436.04 96.9765 3442.24C94.4342 3443.9 92.6093 3446.11 91.2274 3448.38C57.4001 3464.7 35.4883 3494.29 0 3510.28V3488.68C23.378 3473.08 132.916 3395.44 137.726 3377.61Z" fill="#437C95"/>
<path fill-rule="evenodd" clip-rule="evenodd" d="M4336.23 3000.61L4334.29 3002.55L4332 3010.61C4327.94 3017.24 4324.48 3023.59 4321.89 3030.63L4314.6 3051.84C4311.43 3067.02 4308.37 3082.1 4306.47 3097.42C4298.49 3083.25 4289.44 3069.15 4269.03 3063.05C4257.89 3059.72 4244.07 3060.92 4233.44 3064.84C4229.91 3066.14 4226.63 3067.93 4223.47 3069.67C4193.18 3106.38 4197.36 3157.26 4209.88 3197.9L4210.9 3201.1C4217.75 3222.16 4226.25 3241.57 4238.16 3261.32C4222.72 3252.3 4206.1 3243.02 4185.25 3244.46C4174.32 3245.21 4165.65 3249.46 4159.22 3256C4125.99 3289.87 4136.39 3354.67 4145.82 3392.81C4156.84 3437.36 4176.94 3490.5 4215.66 3526.37L4207.38 3547H4226.11C4226.64 3546.4 4227.12 3545.84 4227.57 3545.33C4230.82 3541.56 4232.13 3540.04 4238.79 3537.84C4288.6 3525.9 4328.85 3502.79 4365.34 3475.15C4409.76 3441.5 4466.25 3387.27 4464.57 3336.96C4464.21 3326.28 4459.94 3316.5 4448.9 3309.39C4431.16 3297.97 4409.79 3298.71 4388.11 3299.94C4410.16 3290.15 4426.27 3278.2 4443.86 3264.3C4467.7 3243.12 4488.84 3219.74 4501.46 3193.53C4509.86 3176.1 4516.26 3154.74 4504.6 3137.36C4495.49 3123.77 4478.88 3117.77 4460.73 3113.02C4448.03 3116.27 4436.79 3119.91 4425.1 3124.85C4433.09 3109.19 4439.97 3093.74 4446.12 3077.62C4451.68 3057.54 4456.56 3036.52 4453.79 3015.95C4451.45 2998.56 4442.93 2983.71 4424.42 2972.68C4413.91 2966.41 4403.9 2963.12 4390.26 2964.52C4365.62 2967.07 4356.26 2977.9 4345.45 2990.42C4342.58 2993.74 4339.61 2997.18 4336.23 3000.61Z" fill="#2F6C65"/>
<path d="M4639.52 3547C4668.99 3531.07 4698.66 3515.74 4729 3500.73V3547H4639.52Z" fill="#245268"/>
<path d="M4329.72 3216.39C4345.51 3166.74 4368.57 3118.08 4379.71 3067.69C4382.31 3055.91 4383.89 3027.57 4395.39 3019.77C4400.28 3021.4 4401.4 3023.09 4403.02 3026.8C4415.22 3054.62 4363.54 3193.5 4351.81 3225.37C4373.1 3215.04 4427.08 3183.94 4450.15 3185.44C4454.04 3187.66 4455.85 3188.93 4455.69 3193.08C4455.42 3200.41 4441.16 3205.81 4433.71 3209.3C4403.62 3223.39 4371.71 3236.49 4342.95 3252.02C4322.72 3307.05 4303.03 3362.43 4280.47 3416.94C4296.16 3409.27 4361.69 3372.11 4376.13 3374.76C4378.93 3375.27 4379.46 3376.79 4380.96 3378.45C4380.7 3385.39 4375.98 3389.63 4369.46 3394.13C4340.17 3414.37 4300.74 3427.59 4269.3 3446.14C4257.79 3474.71 4241.09 3505.67 4234.9 3534.98C4236.15 3535.97 4237.25 3537.13 4238.79 3537.84C4231.22 3540.34 4230.56 3541.96 4226.11 3547H4207.38L4215.66 3526.37C4229.32 3494.82 4239.34 3462.45 4251.92 3430.67C4240.49 3412.4 4193.43 3345.72 4193.89 3329.62C4196.81 3325.21 4196.51 3325.07 4202.51 3323.2C4209.43 3325.07 4211.57 3326.93 4214.75 3331.92C4230.31 3356.3 4242.98 3382.45 4260.86 3405.87L4321.14 3238.65C4308.05 3221.92 4250.81 3157.17 4249.75 3142.68C4251.93 3138.33 4252.08 3137.33 4256.95 3134.58C4273.74 3138.52 4316.94 3202.46 4329.72 3216.39Z" fill="#2E7B6D"/>
<path d="M3552.16 3257.46C3574.46 3245.46 3597.03 3234.78 3625.92 3238.08C3706 3280.5 3716 3312.5 3739.4 3411.52C3738.29 3423.54 3737.7 3435.32 3738.08 3447.36C3736.8 3452.11 3735.39 3454.63 3737.36 3459.3C3752.58 3458.4 3799.79 3395.41 3887.24 3398.05C3907.47 3398.66 3927.65 3403.1 3943.14 3413.2C3962.65 3425.93 3970.72 3445.01 3971.82 3463.9C3973.52 3493.23 3960.89 3521.17 3943.4 3547H3305.72C3302.19 3540.05 3300.58 3532.32 3298.81 3525.01C3291.13 3493.24 3297 3464.55 3321.68 3437.68C3326.8 3433.84 3331.99 3429.8 3337.85 3426.58C3352.13 3418.74 3369.96 3415.12 3387.49 3417.37C3432.15 3423.12 3465.62 3460.68 3490.57 3486.15C3482.89 3407.81 3483.17 3321.42 3552.16 3257.46Z" fill="#437C95"/>
<path d="M965.352 3131.38C1001.29 3108.88 1039.92 3092.97 1082.95 3079.57C1090.6 3106.78 1095.51 3134.15 1099.63 3161.77C1100.66 3174.56 1107.12 3203.09 1100.33 3214.05C1093.5 3214.62 1086.72 3215.07 1079.85 3215.36L1077.06 3216.14C1081.78 3221.42 1089.91 3225.53 1096.41 3229.57C1097.97 3231.19 1100.15 3232.57 1101.11 3234.43C1106.51 3244.94 1098.09 3291.6 1095.29 3305.05C1094.52 3308.77 1093.76 3311.59 1091.84 3315.1C1052.06 3314.64 1011.07 3316.32 971.591 3313.08C1000.56 3321.49 1029.59 3329.75 1058.7 3337.88C1068.11 3340.82 1077.47 3343.63 1086.37 3347.38C1079.35 3378.39 1068.35 3410.37 1054.11 3439.98C1040.98 3458.68 1009.97 3474.34 990.133 3489.78C978.753 3498.63 967.903 3507.84 957.582 3517.39C947.261 3526.94 937.509 3536.81 928.326 3547H833.569H824.141H728.542C729.007 3492.66 742.95 3438.37 761.197 3385.99C758.724 3382.12 825.773 3351.49 824.141 3347.38C831.914 3298.8 788.068 3307.36 787.5 3258.5C819.602 3255.43 843.702 3257.35 875 3258.5C894.285 3238.89 906.153 3175.46 927.583 3157.17C948.417 3174.32 972.03 3189.62 991.798 3207.47C981.167 3182.68 973.864 3156.65 965.352 3131.38Z" fill="#2E7B6D"/>
<path d="M824.141 3547C840.986 3513.85 860.958 3481.36 879.661 3448.77L976.197 3280.19C993.359 3250.66 1010.26 3221.05 1026.9 3191.35C1039.84 3167.82 1051.28 3142.79 1067.7 3120.5C1020.88 3226.46 961.998 3331.29 902.131 3433.48C880.248 3470.83 859.944 3511.41 833.569 3547H824.141Z" fill="#3A9174"/>
<path d="M4121.5 3194.83C4131.67 3199.7 4151.85 3211.65 4164.35 3210.27C4159.68 3214.49 4156.52 3218.18 4153.22 3223.08C4130.92 3250.41 4106.87 3273.21 4072.56 3292.62C4051.99 3300.9 4030 3308.19 4006.25 3303.04C4005.18 3302.8 4004.14 3302.54 4003.08 3302.3C4007.66 3293.21 4037.43 3284 4048.21 3274.96C4077.36 3250.53 4095.47 3222.45 4120.26 3196.13L4121.5 3194.83Z" fill="#C66D6C"/>
<path d="M2262.17 2977.96C2256.53 2948.69 2250.47 2915.4 2263.99 2886.79C2269.14 2875.9 2278.06 2865.07 2292.84 2860.48C2311.07 2854.82 2329.56 2859.85 2346.74 2864.93C2376.56 2878.75 2396.78 2894.97 2416.66 2916.52C2447.13 2959.04 2456.92 2998.08 2449.14 3045.87C2439.96 3076.57 2424.97 3105.2 2400.07 3130.74C2391.94 3141.56 2373.75 3159.76 2359.25 3165.98C2350.09 3172.48 2342.16 3178.66 2330.28 3182.34C2334.98 3184.41 2335.86 3184.43 2341.33 3184.14C2378.79 3182.09 2434.6 3129.72 2455.63 3108.67C2449.48 3133.67 2412.77 3154.96 2387.71 3169.94C2378.67 3174.48 2369.42 3178.88 2360.6 3183.65C2338.53 3189.17 2315.38 3192.48 2293.63 3198.45C2267.96 3200.03 2246.47 3202.07 2221.28 3197.05C2216.19 3195.23 2210.88 3193.41 2206.08 3191.17C2178.16 3178.2 2165.97 3159.05 2157.95 3136.15C2155.81 3123.46 2156.39 3111.41 2157.49 3098.69C2159.66 3092.22 2162.01 3085.88 2165.06 3079.6C2176.53 3056.01 2195.73 3045.04 2225.12 3034.72L2251.19 3030.5C2270.87 3027.79 2273.5 3014.82 2268.3 2997.88C2266.24 2991.24 2264.09 2984.64 2262.17 2977.96Z" fill="#4DA39A"/>
<path d="M2338.36 3084.74C2320.35 3048.98 2295.88 3013.58 2299.1 2974.14C2299.95 2963.7 2302.8 2949.43 2314.96 2942.72C2320.89 2939.45 2327.99 2938.35 2335.16 2939.18C2348.5 2940.72 2358.88 2947.54 2366.76 2955.39C2408.42 2996.92 2416.3 3069.66 2405.51 3119.31C2402.99 3123.22 2400.38 3126.33 2400.07 3130.74C2391.94 3141.56 2373.75 3159.76 2359.25 3165.98C2341.28 3165.23 2308.56 3184.55 2269.18 3179.28C2253.81 3177.22 2240.37 3171.06 2231.81 3161.16C2220.29 3147.85 2219.79 3129.6 2224.85 3114.63C2229.21 3101.71 2238.89 3090.45 2254.71 3083.96C2281.41 3073 2310.99 3079.15 2338.36 3084.74Z" fill="#437C95"/>
<path d="M2277.36 3110.07C2282.54 3110.36 2287.81 3110.71 2292.15 3113.12C2297.66 3116.19 2300.76 3121.06 2300.95 3126.14C2301.28 3134.72 2297.21 3140.17 2289.52 3146.21C2288.83 3146.22 2288.14 3146.23 2287.46 3146.23C2279.96 3146.2 2274.17 3145.94 2269.01 3141.21C2264.65 3137.21 2263.28 3132.58 2264.04 3127.58C2265.28 3119.44 2269.16 3115.27 2277.36 3110.07Z" fill="#359099"/>
<path d="M2337.02 2967.79C2344.26 2967.61 2348.9 2968.07 2354.49 2971.84C2359.51 2975.22 2361.71 2980.27 2361.81 2985.19C2361.98 2993 2358.78 2997.47 2351.71 3002.98C2343.98 3003.14 2337.34 3003.65 2331.41 2999.16C2327.51 2996.21 2325.26 2992.69 2325.05 2988.52C2324.59 2979.43 2329.18 2974.33 2337.02 2967.79Z" fill="#359099"/>
<path d="M2287.1 3022.01C2279.85 2989.95 2264.7 2940.01 2291.71 2911.08C2296.84 2905.58 2304.09 2901.47 2313.1 2900.49C2330.84 2898.56 2349.11 2906.93 2362.33 2914.86C2403.91 2939.78 2428.55 2984.03 2433.17 3023.01C2437 3055.25 2429.1 3091.8 2405.51 3119.31C2416.3 3069.66 2408.42 2996.92 2366.76 2955.39C2358.88 2947.54 2348.5 2940.72 2335.16 2939.18C2327.99 2938.35 2320.89 2939.45 2314.96 2942.72C2302.8 2949.43 2299.95 2963.7 2299.1 2974.14C2295.88 3013.58 2320.35 3048.98 2338.36 3084.74C2310.99 3079.15 2281.41 3073 2254.71 3083.96C2238.89 3090.45 2229.21 3101.71 2224.85 3114.63C2219.79 3129.6 2220.29 3147.85 2231.81 3161.16C2240.37 3171.06 2253.81 3177.22 2269.18 3179.28C2308.56 3184.55 2341.28 3165.23 2359.25 3165.98C2350.09 3172.48 2342.16 3178.66 2330.28 3182.34L2328.61 3181.02C2310.93 3187.41 2290.33 3191.63 2270.68 3191.48C2245.71 3191.29 2221.86 3184.2 2204.74 3170.39C2187.4 3156.41 2180.05 3138.09 2181.02 3119.21C2182.3 3094.16 2194.64 3073.3 2219.09 3056.41C2245.04 3045.22 2267.84 3045.08 2296.31 3049.99L2287.1 3022.01Z" fill="#359099"/>
<path d="M3784.06 2932.69C3828.13 2931.87 3871.46 2926.01 3914.38 2918.87C3925.35 2938.65 3910.34 3040.41 3903.94 3063.36C3898.91 3081.4 3891.48 3098.29 3882.18 3115.31C3877.94 3119.01 3871.52 3122.68 3871.18 3127.59L3874.09 3129.28L3858.95 3134.35L3848.04 3135.66C3841.02 3135.69 3836.01 3135.39 3829.29 3133.92C3825.52 3127.72 3817.28 3123.83 3811.77 3118.47C3805.04 3111.91 3800.36 3102.58 3795.73 3095.1C3764.02 3043.84 3756.98 2989.22 3746.33 2934.17C3757.63 2934.25 3773.63 2935.9 3784.06 2932.69Z" fill="#D07E7A"/>
<path d="M2346.74 2864.93C2353.42 2845.47 2360.88 2824.96 2385.69 2813.96C2397.79 2808.6 2411.87 2807.41 2425.36 2810.17C2449.52 2815.1 2466.72 2831.37 2478.07 2847.28C2505.57 2885.82 2503.44 2931.96 2492.83 2973.68C2490.77 2981.76 2484.09 2994.92 2485.61 3002.59C2486.08 3004.97 2487.84 3005.24 2490.19 3006.58C2496.59 2993.21 2502.83 2979.7 2510.26 2966.63C2517.66 2953.59 2542.73 2912.97 2559.37 2907.92L2562.63 2909.11C2561.7 2911.7 2560.66 2913.64 2558.4 2915.76C2530.11 2942.25 2513.67 2970.43 2499.35 3002.49C2490.34 3025.94 2489.03 3052.06 2479.5 3074.09C2474.29 3086.14 2459.82 3096.99 2455.63 3108.67C2434.6 3129.72 2378.79 3182.09 2341.33 3184.14C2335.86 3184.43 2334.98 3184.41 2330.28 3182.34C2342.16 3178.66 2350.09 3172.48 2359.25 3165.98C2373.75 3159.76 2391.94 3141.56 2400.07 3130.74C2424.97 3105.2 2439.96 3076.57 2449.14 3045.87C2456.92 2998.08 2447.13 2959.04 2416.66 2916.52C2396.78 2894.97 2376.56 2878.75 2346.74 2864.93Z" fill="#437C95"/>
<path d="M2421.01 2904.32L2419.08 2901.73L2420.18 2900.68L2418.93 2898.69L2422.24 2898.74C2458.29 2928.8 2473.17 2997.9 2480.52 3037.58C2483.54 3028.64 2490.5 3015.5 2490.19 3006.58C2496.59 2993.21 2502.83 2979.7 2510.26 2966.63C2517.66 2953.59 2542.73 2912.97 2559.37 2907.92L2562.63 2909.11C2561.7 2911.7 2560.66 2913.64 2558.4 2915.76C2530.11 2942.25 2513.67 2970.43 2499.35 3002.49C2490.34 3025.94 2489.03 3052.06 2479.5 3074.09C2474.29 3086.14 2459.82 3096.99 2455.63 3108.67C2434.6 3129.72 2378.79 3182.09 2341.33 3184.14C2335.86 3184.43 2334.98 3184.41 2330.28 3182.34C2342.16 3178.66 2350.09 3172.48 2359.25 3165.98C2373.75 3159.76 2391.94 3141.56 2400.07 3130.74C2424.97 3105.2 2439.96 3076.57 2449.14 3045.87L2475.67 3044.04C2467.09 2997.38 2453.24 2945.21 2421.01 2904.32Z" fill="#3B647F"/>
<path d="M653.285 2847.8C671.564 2886.63 687.746 2925.28 694.213 2966.41C696.36 2980.06 690.961 2996 694.973 3008.9C690.145 3013.41 685.414 3017.41 679.694 3021.29L674.343 3022.67C657.078 3027.71 643.764 3025.8 625.96 3024.58C608.798 3019.01 594.806 3011.74 580.119 3003.2L551.497 2978.97C532.851 2958.83 518.994 2937.89 503.788 2916.27C522.75 2913.65 540.196 2905.92 557.045 2899.24C591.164 2884.03 622.63 2866.63 653.285 2847.8Z" fill="#D07E7A"/>
<path d="M503.788 2916.27C522.75 2913.65 540.196 2905.92 557.045 2899.24C581.908 2934.59 620.982 3010.07 674.343 3022.67C657.078 3027.71 643.764 3025.8 625.96 3024.58C608.798 3019.01 594.806 3011.74 580.119 3003.2L551.497 2978.97C532.851 2958.83 518.994 2937.89 503.788 2916.27Z" fill="#C66D6C"/>
<path fill-rule="evenodd" clip-rule="evenodd" d="M3858.95 3134.35L3848.04 3135.66L3838.8 3137.31C3833.06 3189.15 3818.61 3238.59 3799.84 3288.59C3783.18 3330.68 3761.73 3370.99 3739.4 3411.52C3738.29 3423.54 3737.7 3435.32 3738.08 3447.36C3750.1 3432.72 3759.18 3416.1 3768.14 3399.71C3772.46 3391.82 3776.74 3383.98 3781.31 3376.44L3853.52 3361.35L3864.78 3358.12C3889.67 3354.01 3925.71 3341.72 3944.31 3328.41C3956.69 3322.06 3971.7 3313.37 3978.68 3303.23L3988.27 3297.69L3976.87 3289.49C3970.65 3298.17 3956.62 3306.33 3944.5 3313.38C3940.96 3315.44 3937.59 3317.4 3934.62 3319.25C3926.8 3321.62 3919.06 3324.92 3911.26 3328.24C3904.19 3331.25 3897.08 3334.28 3889.84 3336.65C3857.97 3347.07 3824.69 3353.59 3791.18 3360.15L3788.21 3360.73C3798.87 3340.9 3807.45 3320.46 3816.02 3300.06C3817.62 3296.25 3819.22 3292.44 3820.84 3288.63C3843 3240.44 3853.92 3185.06 3858.95 3134.35Z" fill="#359099"/>
<path d="M4017.18 3125.91C4048.78 3151.33 4083.29 3175.06 4121.5 3194.83L4120.26 3196.13C4095.47 3222.45 4077.36 3250.53 4048.21 3274.96C4037.43 3284 4007.66 3293.21 4003.08 3302.3L3988.27 3297.69L3976.87 3289.49C3973.44 3285.95 3970.44 3282.22 3967.35 3278.5C3967.54 3278.38 3967.76 3278.28 3967.92 3278.14C3972.85 3273.68 3970.12 3268.75 3969.35 3263.23C3974.76 3241.07 3975.62 3219.22 3984.01 3197.22C3993.04 3173.56 4012.58 3149.98 4017.18 3125.91Z" fill="#D07E7A"/>
<path d="M812.621 2887.96C820.163 2894.45 828.918 2898.48 838.461 2903.1C867.517 2913.53 897.72 2923.27 929.373 2928.34L957.912 2930.68L952.302 2944.78C945.496 2959.1 939.236 2974.06 928.732 2987.13L924.437 2993.75C911.358 3007.66 896.637 3022.65 872.867 3025.97C871.662 3026.14 870.449 3026.28 869.239 3026.43L860.851 3026.79C855.578 3025.37 850.475 3023.5 845.35 3021.8C840.306 3018.67 837.211 3016.35 833.697 3012.1L831.692 3012.26C817.685 2994.22 812.568 2977.42 809.189 2956.97C807.596 2937.55 809.393 2918.28 811.819 2898.96C812.596 2895.38 812.441 2891.58 812.621 2887.96Z" fill="#D07E7A"/>
<path d="M929.373 2928.34L957.912 2930.68L952.302 2944.78C945.496 2959.1 939.236 2974.06 928.732 2987.13L924.437 2993.75C911.358 3007.66 896.637 3022.65 872.867 3025.97C871.662 3026.14 870.449 3026.28 869.239 3026.43C879.474 3012.67 893.659 3001.23 902.819 2986.58C914.152 2968.47 918.393 2948.26 928.549 2929.8L929.373 2928.34Z" fill="#C66D6C"/>
<path d="M812.621 2887.96C820.163 2894.45 828.918 2898.48 838.461 2903.1C834.711 2937.43 830.615 2968.99 834.097 3003.64L836.952 3008.44L833.697 3012.1L831.692 3012.26C817.685 2994.22 812.568 2977.42 809.189 2956.97C807.596 2937.55 809.393 2918.28 811.819 2898.96C812.596 2895.38 812.441 2891.58 812.621 2887.96Z" fill="#C66D6C"/>
<path d="M694.973 3008.9L696.871 3008.73C699.5 3014.06 701.878 3019.35 705.765 3024.26C727.452 3060.42 740.384 3100.75 749.581 3139.71C796.293 3105.8 826.32 3068.46 845.35 3021.8C850.475 3023.5 855.578 3025.37 860.851 3026.79C864.785 3034.72 851.707 3054.89 846.965 3062.69C824.587 3099.51 794.748 3132.28 753.753 3158.83C756.984 3181.37 759.569 3203.95 761.507 3226.57C762.075 3275.43 763.553 3325.11 755.78 3373.69L740.098 3339.49C748.015 3311.32 744.054 3259.2 742.409 3229.01C740.744 3179.77 718.12 3055.95 679.694 3021.29C685.414 3017.41 690.145 3013.41 694.973 3008.9Z" fill="#3A9174"/>
<path d="M3691.51 2922.3C3701.25 2930.33 3715.09 2932.01 3729.11 2932.59C3747.31 2933.35 3765.96 2931.57 3784.06 2932.69C3773.63 2935.9 3757.63 2934.25 3746.33 2934.17C3756.98 2989.22 3764.02 3043.84 3795.73 3095.1C3800.36 3102.58 3805.04 3111.91 3811.77 3118.47C3817.28 3123.83 3825.52 3127.72 3829.29 3133.92C3824.93 3133.26 3820.78 3132.57 3816.62 3131.38C3785.91 3122.6 3759.89 3097.87 3746.43 3076.07C3736.99 3063.87 3730.44 3051.06 3723.67 3037.94C3718.11 3026.66 3714.02 3014.74 3709.38 3003.22C3702.96 2982.54 3698.79 2961.9 3695.43 2940.86C3694.58 2934.5 3693.62 2928.49 3691.51 2922.3Z" fill="#C66D6C"/>
<path d="M3968.69 2901.12C3966.53 2937.19 3966.69 2972.01 3960.2 3008.03C3947.59 3047.98 3930.31 3103.77 3879.84 3126.93C3877.98 3127.78 3876.03 3128.52 3874.09 3129.28L3871.18 3127.59C3871.52 3122.68 3877.94 3119.01 3882.18 3115.31C3891.48 3098.29 3898.91 3081.4 3903.94 3063.36C3910.34 3040.41 3925.35 2938.65 3914.38 2918.87C3926.57 2916.15 3938.49 2913.07 3950.46 2909.85C3956.42 2906.77 3962.5 2903.93 3968.69 2901.12Z" fill="#C66D6C"/>
<path d="M3764.14 2898.77C3807.46 2893.96 3928.45 2877.66 3962.29 2894.28C3965.45 2895.84 3967.02 2898.69 3968.69 2901.12C3962.5 2903.93 3956.42 2906.77 3950.46 2909.85C3938.49 2913.07 3926.57 2916.15 3914.38 2918.87C3871.46 2926.01 3828.13 2931.87 3784.06 2932.69C3765.96 2931.57 3747.31 2933.35 3729.11 2932.59C3715.09 2932.01 3701.25 2930.33 3691.51 2922.3C3705.45 2907.73 3742.12 2903.59 3764.14 2898.77Z" fill="#B04648"/>
<path d="M3328.71 3204.02C3330.29 3188.23 3333.58 3172.2 3350.01 3160.88C3357.9 3155.44 3368.11 3152.49 3378.84 3152.89C3391.33 3153.36 3402.58 3158.47 3410.46 3165.56C3423.44 3177.24 3428.15 3193.67 3425.64 3208.56C3424.65 3214.4 3422.35 3220.17 3420.21 3225.82C3419.2 3227.21 3418.2 3228.61 3417.1 3229.96C3409.51 3239.27 3399.17 3247.4 3384.32 3249.52C3374.08 3250.98 3363.45 3248.62 3355.1 3244.11C3336.99 3234.34 3331.76 3219.62 3328.71 3204.02Z" fill="#ABD39C"/>
<path d="M3372.09 3179.4C3377.02 3179.74 3382.59 3180.01 3386.72 3182.3C3393.8 3186.23 3398.06 3191.33 3398.61 3198.01C3399.46 3208.15 3394.4 3214.96 3385.45 3222.14C3377.23 3222.27 3370.43 3221.73 3364.16 3217.28C3358.68 3213.37 3356.24 3207.94 3356.46 3202.37C3356.88 3191.88 3362.17 3186.29 3372.09 3179.4Z" fill="#FEFEFE"/>
<path d="M695.167 2813.93C702.815 2826.22 707.274 2839.55 712.286 2852.55C715.505 2863.91 718.928 2875.25 721.495 2886.69L725.007 2903.6C725.969 2924.73 725.639 2944.56 721.45 2965.49C715.621 2981.14 709.827 2995.42 696.871 3008.73L694.973 3008.9C690.961 2996 696.36 2980.06 694.213 2966.41C687.746 2925.28 671.564 2886.63 653.285 2847.8C669.052 2837.38 683.018 2826.82 695.167 2813.93Z" fill="#C66D6C"/>
<path d="M3965.46 3278.34C3940.76 3230.65 3946.51 3184.8 3967.58 3136.8C3973.52 3123.29 3981.74 3110.08 3986.9 3096.45L3988.05 3093.31C3990.28 3097.48 3992.39 3101.65 3995.17 3105.64C4002.38 3112.48 4009.71 3119.24 4017.18 3125.91C4012.58 3149.98 3993.04 3173.56 3984.01 3197.22C3975.62 3219.22 3974.76 3241.07 3969.35 3263.23C3970.12 3268.75 3972.85 3273.68 3967.92 3278.14C3967.76 3278.28 3967.54 3278.38 3967.35 3278.5L3965.46 3278.34Z" fill="#C66D6C"/>
<path d="M503.788 2916.27C503.789 2913.53 503.771 2911.26 504.815 2908.54C514.312 2883.87 633.973 2825.52 666.737 2814.64C676.825 2811.29 684.139 2809.01 694.98 2812.1L695.167 2813.93C683.018 2826.82 669.052 2837.38 653.285 2847.8C622.63 2866.63 591.164 2884.03 557.045 2899.24C540.196 2905.92 522.75 2913.65 503.788 2916.27Z" fill="#B04648"/>
<path d="M3988.05 3093.31C4009.68 3091.41 4039.89 3111.25 4055.89 3120.7C4085.33 3138.08 4157.56 3181.87 4164.35 3210.27C4151.85 3211.65 4131.67 3199.7 4121.5 3194.83C4083.29 3175.06 4048.78 3151.33 4017.18 3125.91C4009.71 3119.24 4002.38 3112.48 3995.17 3105.64C3992.39 3101.65 3990.28 3097.48 3988.05 3093.31Z" fill="#B04648"/>
<path d="M812.621 2887.96C824.585 2882.61 842.496 2886.92 855.256 2889.4C885.762 2895.36 934.093 2906.61 955.834 2924.58C956.669 2926.62 957.644 2928.55 957.912 2930.68L929.373 2928.34C897.72 2923.27 867.517 2913.53 838.461 2903.1C828.918 2898.48 820.163 2894.45 812.621 2887.96Z" fill="#B04648"/>
<path d="M3639.26 3125.61C3647.76 3126.48 3654.39 3128.6 3659.95 3133.6C3665.2 3138.32 3667.17 3144.35 3666.4 3150.4C3665.1 3160.77 3659.11 3166.31 3648.93 3172.92C3640.88 3171.9 3634.3 3170.55 3628.68 3165.71C3628.32 3165.4 3627.97 3165.08 3627.63 3164.75C3627.29 3164.42 3626.96 3164.09 3626.64 3163.75C3626.33 3163.4 3626.02 3163.06 3625.73 3162.71C3625.44 3162.36 3625.16 3162 3624.89 3161.63C3624.63 3161.26 3624.38 3160.89 3624.14 3160.52C3623.89 3160.15 3623.66 3159.77 3623.45 3159.39C3623.24 3159 3623.04 3158.62 3622.85 3158.23C3622.66 3157.84 3622.49 3157.44 3622.34 3157.04C3622.18 3156.65 3622.03 3156.25 3621.9 3155.84C3621.77 3155.44 3621.66 3155.04 3621.56 3154.63C3621.45 3154.22 3621.37 3153.81 3621.3 3153.4C3621.23 3152.99 3621.17 3152.57 3621.12 3152.16C3621.08 3151.75 3621.05 3151.33 3621.03 3150.92C3621.02 3150.5 3621.02 3150.08 3621.03 3149.67C3621.05 3149.26 3621.08 3148.84 3621.12 3148.43C3621.17 3148.02 3621.23 3147.6 3621.3 3147.19C3623.06 3137.06 3628.59 3131.56 3639.26 3125.61Z" fill="#ABD39C"/>
<path d="M3817.81 2838.15C3818.86 2838.08 3819.9 2837.98 3820.95 2837.95C3828.63 2837.74 3834.83 2839.44 3840.13 2843.7C3845.55 2848.07 3847.4 2854.17 3847.01 2859.99C3846.37 2869.51 3841.61 2875.07 3832.53 2881.41C3825.1 2881.39 3818.94 2880.75 3813.15 2877.04C3807.43 2873.37 3804.35 2867.99 3804.15 2862.4C3803.78 2852.1 3808.81 2845.53 3817.81 2838.15Z" fill="#ABD39C"/>
<path d="M3736.62 3194.89C3741.31 3194.9 3745.97 3194.66 3750.34 3196.23C3757.44 3198.76 3761.55 3203.84 3762.91 3209.46C3765.2 3218.99 3759.23 3226.56 3751.72 3233.68C3744.98 3233.82 3739.61 3234.01 3733.8 3230.81C3727.62 3227.4 3724.55 3222.4 3724.32 3216.78C3723.94 3207.43 3728.58 3201.67 3736.62 3194.89Z" fill="#ABD39C"/>
<path d="M3747.81 2894.19C3742.4 2887.98 3736.34 2880.32 3738.13 2872.48C3739.08 2868.31 3741.56 2864.56 3746.57 2862.41C3751.94 2860.11 3757.52 2859.65 3763.28 2861.63C3768.11 2863.3 3771.9 2866.82 3773.19 2870.68C3775.51 2877.61 3771.97 2884.69 3768.07 2890.85C3760.95 2893.88 3755.91 2894.07 3747.81 2894.19Z" fill="#ABD39C"/>
<path d="M3877.31 2873.9C3876.61 2868.4 3875.77 2862.99 3878.11 2857.64C3880.44 2852.33 3884.37 2849.7 3891.01 2847.26C3895.53 2847.51 3897.19 2847.2 3901.13 2849.13C3910.24 2853.58 3911.17 2860.69 3912.79 2868.11L3905.28 2879.13C3901.57 2880.58 3897.23 2881.67 3892.99 2881.54C3886.18 2881.34 3881.65 2877.31 3877.31 2873.9Z" fill="#ABD39C"/>
<path d="M574.92 2808.62C581.081 2809.52 585.188 2810.21 589.992 2813.49C594.716 2816.7 596.751 2821.26 596.628 2825.95C596.41 2834.23 591.555 2838.92 584.12 2844.63C579.991 2844.18 575.328 2843.4 571.825 2841.62C566.421 2838.88 563.062 2833.86 562.768 2829.04C562.226 2820.16 567.1 2814.84 574.92 2808.62Z" fill="#ABD39C"/>
<path d="M4094.27 3101.11C4099.36 3101.91 4103.32 3102.61 4107.24 3105.35C4111.3 3108.18 4113.61 3111.69 4114.04 3115.83C4114.9 3124.33 4110.44 3129.67 4103.43 3135.97C4097.34 3135.33 4091.64 3134.1 4087.26 3130.64C4082.77 3127.07 4081.37 3123.26 4081.51 3118.46C4081.72 3110.94 4087.49 3106.08 4094.27 3101.11Z" fill="#ABD39C"/>
<path d="M625.381 2794.16C629.07 2794.53 632.094 2794.96 635.392 2796.4C640.581 2798.67 643.753 2802.12 644.297 2806.65C645.154 2813.78 640.81 2818.51 635.35 2823.84C632.248 2823.45 629.321 2822.95 626.458 2821.91C621.361 2820.05 617.756 2816.81 616.765 2812.54C615.113 2805.44 620.019 2799.58 625.381 2794.16Z" fill="#ABD39C"/>
</g>
<defs>
<linearGradient id="paint0_linear_147_2275" x1="2168.3" y1="3435.34" x2="2307.34" y2="3499.62" gradientUnits="userSpaceOnUse">
<stop stop-color="#358575"/>
<stop offset="1" stop-color="#427C7D"/>
</linearGradient>
<clipPath id="clip0_147_2275">
<rect width="4729" height="3547" fill="white"/>
</clipPath>
</defs>
</svg>
