<svg width="595" height="212" viewBox="0 0 595 212" fill="none" xmlns="http://www.w3.org/2000/svg">
<path fill-rule="evenodd" clip-rule="evenodd" d="M241.704 59.5471C242.875 59.4467 242.645 59.2537 243.304 59.9186L243.728 60.4748C243.689 59.3371 243.461 56.3908 243.177 55.5823L243.457 55.8645C242.571 51.1546 241.926 46.1161 239.646 41.6667C238.763 39.9444 237.008 37.4502 235.555 36.7514C233.143 35.591 230.718 36.7101 229.784 38.3056C226.023 44.7339 231.538 50.4912 234.634 53.654L238.869 57.558C238.929 57.6099 239.016 57.6849 239.079 57.7351C239.513 58.0829 241.064 59.2223 241.704 59.5471Z" fill="#BBDDBE"/>
<path d="M243.457 55.8645L243.177 55.5823C243.461 56.3908 243.689 59.3371 243.728 60.4748L243.304 59.9186C242.645 59.2537 242.875 59.4467 241.704 59.5471C244.668 63.0055 247.819 66.4694 250.489 70.356C253.224 74.3392 255.879 78.2364 257.138 83.173C255.445 81.7997 254.545 79.3018 253.241 77.7023L251.108 75.2039C247.9 71.5806 243.366 67.6583 237.25 66.9983C230.338 66.2523 226.754 69.365 230.499 75.6481C233.992 81.5084 249.58 85.2638 255.463 86.7384C259.056 87.6394 258.872 87.8556 260.105 91.011C266.209 106.629 262.785 110.936 262.826 126.208C262.828 126.898 262.884 127.9 262.835 128.55L262.461 130.189C261.55 122.164 259.13 104.64 250.218 102.099C245.993 100.895 243.451 103.812 243.251 107.614C242.824 115.738 248.772 121.333 251.919 125.625C255.001 129.829 257.036 135.067 256.674 140.57L255.504 146.083C254.331 135.829 245.426 120.874 235.085 119.816C229.453 119.239 226.176 122.045 223.068 123.561C224.852 118.536 227.357 114.467 225.718 108.014C224.528 103.332 221.319 99.2689 216.081 98.846C211.587 98.4829 207.314 100.692 204.852 104.117L204.793 104.2C204.494 104.615 204.189 105.039 203.899 105.507C202.919 107.086 201.454 109.92 200.794 111.714L200.745 111.845C199.983 113.918 199.006 116.573 197.811 117.991C197.719 111.192 197.52 102.387 200.382 96.534C204.147 88.8335 212.926 86.5932 214.859 81.0963C217.058 74.8431 210.023 73.9803 205.86 76.7672L202.51 79.6447C199.796 82.0616 198.838 86.2854 197.902 89.7755C197.788 90.1986 197.671 90.6234 197.503 90.9994C197.236 91.5983 197.27 91.4897 196.987 91.8407C196.766 80.2502 196.978 82.0651 200.172 71.4764C201.719 66.3453 202.626 53.0768 194.889 54.8799C192.102 55.5298 190.17 58.4889 189.709 61.8085C188.668 69.3146 192.795 74.9433 194.109 81.442C194.781 84.7667 194.856 88.4236 195.012 91.951C193.549 89.6268 193.173 86.0768 191.479 83.3307C189.732 80.4974 188.308 78.5689 185.182 77.1563C177.937 73.882 172.718 79.4951 181.198 87.414C181.917 88.0846 182.009 88.281 182.812 88.9091L188.28 92.7432C189.348 93.4904 190.499 94.408 191.675 95.5156C192.611 96.3975 193.447 97.8445 194.217 99.2388C197.529 105.238 196.076 113.786 195.415 120.841C195.179 120.528 192.291 112.209 188.602 106.799C187.244 104.806 185.505 103.147 183.664 101.617L182.29 100.341C178.637 97.2788 171.973 94.3872 166.869 94.3781C161.757 94.3692 157.57 96.1212 153.706 98.6649L150.185 102.135C145.111 109.581 144.745 118.277 148.198 126.094C147.388 125.516 147.592 125.434 146.675 124.718L146.663 124.709C141.95 121.032 137.832 117.818 130.992 119.74C122.839 122.031 122.625 127.008 118.531 132.013C118.139 130.292 117.069 123 117.36 121.621C117.903 119.05 128.423 113.475 130.91 111.924C132.479 110.946 135.518 107.898 136.36 106.093C140.178 97.9087 130.014 98.1112 125.681 103.976L123.177 107.29C120.616 111.129 119.453 116.361 117.583 119.046C116.577 102.929 114.564 99.8838 125.307 91.1756C136.974 81.718 132.426 74.1504 125.239 79.4731C124.673 79.8923 122.813 81.8255 122.382 82.4237C121.662 83.4223 120.922 84.5035 120.281 85.7569C118.928 88.4069 117.96 90.96 117.631 94.1703C116.441 92.4314 117.089 94.036 116.94 91.5843C116.12 78.1378 122.231 74.0269 120.144 63.5457C119.587 60.7457 118.049 56.9726 114.733 58.7538C106.358 63.2526 114.553 82.8937 115.085 86.1136C115.585 89.1356 115.683 93.6021 115.886 96.8035L114.676 95.0452C112.728 90.7829 110.943 86.2531 107.861 82.8967C101.867 76.3681 96.5687 83.7815 102.366 89.1729C104.085 90.7718 106.526 92.2655 108.499 93.8892C120.016 103.364 114.245 103.197 116.119 118.626C114.526 117.567 113.613 114.61 111.197 112.872C108.114 110.653 102.862 108.802 99.1274 111.495C94.9131 114.533 94.7118 117.094 92.9613 120.762C92.5991 115.453 92.0844 110.742 89.6055 106.616C86.5782 101.578 79.1362 96.7605 72.8119 100.228C70.5167 101.486 69.8377 102.22 68.6572 104.687C66.67 108.839 67.0028 114.796 68.7267 118.836C49.5 96.8035 13.5 103.229 0 139.043V204.064C74.5195 204.064 103.046 204.057 176.986 203.907C316.294 203.907 455.692 204.064 595 204.064V139.043C592.5 102.531 557.223 99.1255 540.562 119.9C535.133 126.667 531.509 136.577 531.704 145.594C530.595 143.871 529.765 136.559 521.354 134.375C515.16 137.632 529.541 125.625 509.231 117.802C511.294 114.435 510.143 106.238 508.667 102.815C504.361 92.8334 495.245 89.7212 485.929 93.8846C483.987 94.7525 480.64 97.357 479.205 98.7476L475.986 102.067C479.514 93.2903 483.798 84.0554 485.134 73.7173C485.921 67.6349 485.768 62.0855 483.278 56.9284C477.817 45.6192 465.216 46.8593 459.259 53.9374C452.825 61.5823 450.17 72.4426 450.297 82.3538C450.39 89.6603 451.877 92.6612 452.634 98.8804C447.322 93.9806 441.169 92.094 434.03 94.5776C430.581 95.7776 427.142 98.1868 424.66 100.763L419.664 105.226C423.174 98.3572 430.924 85.4092 423.641 77.3837C420.131 73.5166 414.562 72.7568 409.671 75.643C403.44 79.3205 402.88 82.7132 400.113 84.8028C402.639 77.4597 404.813 67.9995 404.258 59.4871C403.611 49.5512 398.027 37.0921 388.444 43.9233C387.859 44.3405 388.073 44.1898 387.63 44.6788C383.802 48.8973 381.497 52.9557 380.13 59.3007C377.41 71.9246 380.161 76.2614 380.014 87.1667C377.595 83.9354 376.156 71.8158 368.46 69.3228C365.448 68.3472 362.955 69.1792 362.216 72.4397C360.944 78.0523 363.018 83.1909 365.241 87.7446C366.991 91.3294 369.917 96.6505 372.978 99.0884C372.9 99.1435 372.776 99.1931 372.721 99.2183C372.666 99.2433 372.532 99.3129 372.463 99.3425C370.961 99.9901 369.417 100.523 368.179 101.613L366.168 103.516C364.273 105.786 363.423 107.55 362.329 110.952C362.267 103.687 363.148 97.8709 357.554 91.9442C355.254 89.5068 350.852 89.6696 348.435 91.5607C346.529 93.0524 345.57 95.1541 344.944 97.4347C344.847 97.787 344.738 98.2563 344.596 98.6268C344.462 98.9771 344.432 99.1022 344.432 99.1409C344.431 99.1842 344.466 99.1191 344.432 99.1409C344.405 99.1576 344.336 99.2261 344.177 99.4357C343.881 90.2364 344.109 85.0065 340.376 76.6856C336.687 68.4641 329.157 62.0113 320.082 68.204C318.527 69.2651 318.435 70.2417 317.17 71.944C311.351 79.7799 314.523 97.639 316.939 105.752C315.408 104.131 313.998 100.462 311.433 97.8389C308.342 94.6778 304.19 91.1742 299.272 93.4284C296.551 94.6757 295.668 96.0939 294.532 98.9707C292.485 104.158 293.546 111.353 295.521 116.358C296.767 119.516 298.579 123.953 300.417 126.705C301.223 127.913 301.832 128.485 302.263 129.909C292.028 120.837 275.672 131.109 272.379 137.632C272.553 134.932 277.556 129.079 279.588 127.35C281.35 125.85 280.928 125.947 282.127 124.461C292.1 112.082 286.072 103.366 276.701 109.302C268.689 114.376 267.251 121.941 264.739 131.243C263.945 127.914 264.939 108.841 267.905 103.229C270.188 98.9087 272.199 97.565 275.358 94.8038C276.403 93.8905 277.027 93.4038 278.195 92.6098C283.369 89.0918 288.252 85.0402 292.862 80.9082C296.106 78.0007 304.707 68.1461 297.897 64.3685C293.034 61.6709 286.422 65.8098 283.128 69.1912C282.307 70.033 281.191 70.8819 280.37 71.9173C273.308 80.8195 272.02 85.9319 267.958 95.9974L267.985 92.0843C269.377 83.2678 271.533 74.5119 274.783 66.2422C275.553 64.2846 276.607 61.4801 277.626 59.783C281.453 53.4133 296.369 50.6152 302.157 42.825C308.419 34.3973 303.193 29.9368 296.563 33.6954C292.396 36.0581 290.317 39.0341 287.289 42.3568C287.236 42.4144 287.159 42.5001 287.108 42.5589L283.008 48.1953C282.061 49.4374 280.605 51.9997 279.272 53.3641C279.535 51.0708 281.675 44.7789 282.431 41.6932C283.505 37.3095 284.985 35.2876 286.95 31.8544C289.847 26.79 294.47 15.1879 291.128 8.76826C287.291 1.39481 280.329 10.2165 279.855 21.8035C279.577 28.5816 282.648 42.004 278.48 47.7798C277.957 41.0203 277.241 36.4424 273.903 31.0466C273.174 29.8681 272.844 29.6287 271.923 28.7235C265.084 21.9987 260.162 30.4836 264.032 38.5086C266.733 44.1083 270.236 46.024 273.244 50.291C275.812 53.9336 276.931 54.4055 275.305 59.4706C272.584 67.946 269.127 75.8224 267.254 84.7684C266.24 89.611 264.643 93.9503 264.892 99.1654C264.826 99.0826 264.753 98.9633 264.719 98.8986L264.021 96.8006C263.864 96.0309 263.73 95.4229 263.494 94.585C263.047 93.0006 262.661 91.6447 262.137 90.1498C255.657 71.6775 259.242 76.2208 258.893 60.225C258.774 54.775 256.939 44.5332 250.658 45.9624C243.349 47.6256 247.727 60.9994 247.612 61.848C247.573 62.1341 247.57 62.289 247.58 62.3675C247.603 62.5514 247.699 62.3163 247.58 62.3675C247.519 62.3934 247.403 62.4927 247.194 62.7569L243.459 55.8654L243.457 55.8645Z" fill="#BBDDBE"/>
<path fill-rule="evenodd" clip-rule="evenodd" d="M500.247 47.4237C500.802 48.7047 501.561 50.6869 502.199 51.8358C504.648 56.2484 505.317 50.4464 507.027 64.8691C507.872 71.992 508.5 79.5605 509.088 86.8204C503.78 79.8232 498.757 64.6305 486.963 66.4818C484.311 77.4938 500.426 88.3711 509.365 92.8045C510.115 95.8247 510.011 109.118 509.883 112.98C509.662 119.577 508.585 126.066 508.256 131.742C505.793 127.318 507.255 126.315 501.172 117.767C499.504 117.406 499.941 116.245 497.944 114.702L496.27 113.311C490.765 109.015 486.931 113.436 489.764 120.221C490.109 121.046 491.164 123.335 491.662 124.144C496.165 129.975 500.796 134.328 506.72 138.53C506.795 138.574 506.901 138.621 506.972 138.669C507.845 139.255 508.037 139.883 508.109 140.922L505.847 176.998C505.498 176.2 503.808 164.6 502.886 161.414C502.137 158.828 501.408 157.178 500.342 154.625C498.883 151.133 487.84 135.484 482.982 143.965C477.492 153.549 485.825 166.136 490.866 173.821L494.633 179.01C498.253 184.139 502.175 189.979 504.626 196.499C505.339 198.395 505.565 201.066 506.343 203.076L509.378 203.756C514.829 195.766 517.56 187.098 524.779 179.601L529.808 173.362C534.388 167.992 539.049 158.751 537.376 151.46C536.316 146.837 532.706 145.093 528.52 147.675C520.97 152.33 517.292 160.291 513.381 167.843C507.802 178.617 509.551 187.208 508.102 191.704C507.676 193.026 507.948 192.231 507.622 192.731C507.466 187.531 508.634 182.166 508.475 177.038C508.326 172.198 508.633 166.452 508.825 161.818C509.101 155.178 510.628 144.667 510.483 138.989C510.372 134.687 516.613 131.027 519.29 127.919C519.738 127.354 520.268 126.847 520.762 126.291C525.319 121.165 531.973 109.386 530.66 102.575C529.823 98.2351 525.149 100.194 523.243 102.077C513.17 112.029 515.232 117.502 511.096 126.748C510.848 124.549 511.827 119.289 511.858 116.473C511.894 113.118 512.029 109.211 511.933 105.606C511.841 102.131 511.587 97.7301 511.752 94.3377C511.896 91.3988 512.504 91.8515 514.04 90.4917C518.919 86.1711 523.082 80.1557 526.372 74.5297C529.515 69.1527 532.436 63.1955 530.49 57.3767C519.088 55.305 513.808 76.0856 511.226 83.385C509.897 79.8019 509.385 68.0437 508.724 63.3027C508.134 59.0685 507.116 55.4219 508.879 53.4995C510.426 51.8114 512.122 48.0385 511.254 45.5048C507.735 45.1903 502.264 44.4057 500.246 47.4237H500.247Z" fill="#6AB18E"/>
<path fill-rule="evenodd" clip-rule="evenodd" d="M429.6 51.2334C426.358 50.9234 425.823 58.6529 433.231 68.4002C440.64 78.1474 431.283 89.5885 436.137 93.8593C436.418 94.1072 437.735 93.2774 439.478 93.2774C439.671 93.185 439.928 77.9357 440.102 77.3503C440.242 76.8799 440.398 76.3308 441.003 75.1327C442.316 72.5367 442.53 73.5411 444.382 70.8483C445.464 69.2751 446.787 68.0693 447.737 66.4041C448.091 65.7834 448.743 64.7325 448.954 63.6893C449.597 60.5067 448.897 59.416 446.935 58.0051C442.31 59.9836 440.574 65.9959 439.87 70.6583C439.165 68.0245 438.312 56.0812 438.52 52.4465C438.704 49.2155 441.263 47.9566 443.759 45.7626C443.818 45.711 443.906 45.6381 443.965 45.5872C444.023 45.5365 444.112 45.4644 444.17 45.4137L447.954 42.2704C452.257 38.8516 460.212 30.4168 456.614 26.0546C454.165 23.0851 450.701 24.5869 447.847 26.5894C440.111 32.018 439.402 39.3288 437.682 42.4523C437.539 38.2112 436.693 34.8962 438.031 30.8013C438.972 27.9172 440.8 25.2276 441.733 21.9937C442.764 18.4182 443.365 14.8489 443.193 11.0118C442.65 -1.15409 434.082 -1.11455 431.415 4.74626C426.816 14.8583 434.364 27.4426 434.959 36.4524C433.612 34.7672 433.01 31.4351 430.126 27.4263C428.66 25.389 425.437 21.9507 423.056 20.8222C413.593 16.3355 409.319 25.4204 422.409 34.8186L429.16 39.6834C438.428 46.5568 435.859 45.7006 436.862 55.5683C437.096 57.8722 437.82 66.6467 437.295 67.8911C437.295 67.8911 432.842 51.5434 429.6 51.2334Z" fill="#D5E8CC"/>
<path fill-rule="evenodd" clip-rule="evenodd" d="M402.476 155.655C402.528 154.397 404.587 147.655 405.113 145.986C407.122 139.612 409.468 132.68 409.46 125.781C409.455 121.872 408.541 115.492 404.776 113.687C402.384 112.54 400.998 111.807 398.362 112.849C391.793 115.446 390.998 122.952 390.667 129.325C390.527 132.015 391.331 138.416 390.531 140.777L386.172 132.316C380.034 121.468 365.331 124.651 376.199 147.71C377.879 151.276 380.822 157.703 381.731 161.542C379.969 160.513 378.328 157.578 376.89 156C376.012 155.035 372.772 152.809 370.769 152.002C364.703 149.556 359.751 150.179 355.368 154.709C353.852 156.276 352.709 158.746 352.275 160.932C351.105 166.818 353.874 171.759 355.898 176.965C356.876 179.479 358.252 181.382 359.327 183.935L358.02 183.032C355.988 181.395 354.957 179.688 352.703 178.298C350.05 176.663 346.488 176.568 344.052 178.315C338.458 182.329 343.442 191.6 344.674 195.593L340.325 191.433C338.978 190.234 337.201 189.113 335.097 188.549C332.782 187.928 329.743 188.005 327.517 188.898C326.512 189.301 325.659 190.034 324.962 190.576C323.983 191.337 323.646 191.359 322.767 192.387C323.265 190.658 323.203 191.207 324.247 189.913C324.763 189.274 325.198 188.5 325.86 187.618L327.328 185.216C327.768 184.288 328.265 183.568 328.652 182.634C332.45 173.47 326.861 166.528 317.852 171.858L311.299 176.924C310.288 177.842 310.29 178.005 309.535 179.037C308.568 180.359 308.509 179.864 307.604 180.986C309.122 175.39 312.687 170.182 313.365 164.239C314.077 158.012 313.144 151.735 307.303 148.87C304.093 147.296 298.528 148.56 296.793 151.535C295.732 153.355 294.719 154.456 293.781 156.674C289.927 165.789 292.055 168.101 290.256 175.336C289.02 171.47 287.93 163.957 284.769 160.544C284.715 160.486 284.63 160.408 284.575 160.351C284.519 160.295 284.433 160.218 284.377 160.162L283.632 159.388C280.363 155.815 276.051 156.208 274.252 160.853C271.803 167.175 275.448 174.981 276.373 181.254L275.591 180.317C273.752 177.838 274.137 176.426 271.333 174.007L266.347 169.68C266.031 169.484 265.221 169.052 264.865 168.881C260.548 166.815 255.618 167.032 252.231 170.485C252.03 170.69 251.913 170.774 251.67 171.095C251.287 171.602 250.184 173.551 249.97 174.107C246.26 183.712 252.292 187.491 254.721 194.78C251.899 193.588 249.226 190.378 244.777 193.715C243.529 194.65 242.459 195.839 242.13 198.045C241.842 199.969 242.325 202.227 243.178 203.739L488.771 203.752L492.826 194.312C494.391 189.886 495.218 181.863 489.8 179.446C483.792 176.767 481.551 182.361 478.815 185.287L477.659 186.297C479.074 180.895 482.198 174.365 480.094 168.225C479.548 166.63 478.034 164.946 476.725 164.529C474.218 163.73 472.49 164.632 471.215 166.01C467.284 170.255 466.407 175.926 466.117 181.735C464.274 177.179 465.401 170.833 461.437 163.636C460.806 162.492 459.886 161.157 459.175 160.083C458.335 158.813 458.34 158.166 456.63 157.216C456.159 156.954 455.898 156.859 455.566 156.678C455.246 156.504 454.902 156.276 454.595 156.106C449.376 153.221 444.717 157.417 443.161 162.387C442.369 164.918 442.574 169.466 443.327 172.462C444.833 178.449 448.841 185.461 449.648 188.854C449.406 188.709 449.023 188.502 448.833 188.344C447.031 186.847 448.887 187.465 444.491 184.469C437.419 179.648 431.182 182.505 426.144 188.05C425.583 188.668 426.16 188.235 425.448 188.726C426.625 185.872 428.262 183.407 428.986 179.91C429.696 176.486 429.278 173.179 427.735 170.606C426.239 168.112 422.06 167.81 419.632 169.018C417.594 170.031 416.015 171.486 414.782 173.044C413.308 174.908 415.026 173.678 412.849 174.633C414.166 171.819 416.056 169.697 417.665 167.08L419.567 164.32C423.003 157.892 429.105 150.189 426.191 141.913C425.077 138.75 423.426 136.992 419.119 137.534C413.658 138.22 411.341 142.14 409.5 144.203C407.119 146.87 404.802 151.202 402.84 154.925C402.632 155.319 402.617 155.492 402.591 155.413C402.573 155.359 402.511 155.573 402.476 155.656L402.476 155.655Z" fill="#6AB18E"/>
<path fill-rule="evenodd" clip-rule="evenodd" d="M571.725 196.209C572.863 191.518 578.915 181.448 582.512 176.999L585.566 172.248C588.78 166.459 588.045 160.539 583.865 159.68C581.41 159.176 579.277 161.084 577.571 162.356C573.762 165.198 571.049 171.743 569.517 176.01C569.067 177.264 566.915 184.572 566.935 185.018C567.195 178.625 564.866 172.603 561.592 167.689C560.778 166.466 559.109 165.14 557.346 164.837C554.177 164.293 552.137 166.384 552.211 169.609C552.346 175.468 560.041 182.522 564.267 196.386C558.754 192.892 551.413 181.126 543.427 185.162C541.547 186.113 540.663 188.733 541.539 191.216C543.613 197.1 551.505 198.304 553.463 203.612C558.241 204.043 577.123 204.25 581.35 203.504C582.719 198.486 589.629 197.031 591.06 192.065C592.732 186.269 587.566 182.404 578.106 190.037C575.77 191.922 573.91 194.17 571.725 196.209Z" fill="#6AB18E"/>
<path fill-rule="evenodd" clip-rule="evenodd" d="M500.247 47.4246C502.264 44.4066 507.735 45.1912 511.254 45.5057C512.363 44.0454 512.442 44.4961 514.028 43.5566C516.223 42.2567 517.814 40.3978 519.168 39.3877C534.192 28.1755 529.557 16.1112 517.545 22.586C511.094 26.0629 509.529 30.7498 508.325 31.4703C509.814 26.0236 512.021 22.2287 511.812 16.0203C511.288 0.501526 497.562 -0.0880413 496.711 14.8184C496.392 20.4062 497.81 25.5156 499.346 30.7404L494.537 24.6666C487.594 16.5097 474.793 16.1927 478.74 26.8768C479.698 29.4703 482.345 33.5315 484.004 35.2214C485.197 36.4364 486.508 37.3684 487.825 39.1391C490.206 42.3409 497.022 45.2762 500.246 47.4244L500.247 47.4246Z" fill="#FBAA8E"/>
<path fill-rule="evenodd" clip-rule="evenodd" d="M32.1207 76.539C32.2932 79.7472 34.7762 83.7225 34.6531 84.9565C34.5036 86.4546 32.4587 91.2626 31.8723 92.674L25.4535 107.691C25.924 101.384 25.6844 96.9697 24.7456 91.0829C22.9796 87.908 24.1212 88.6006 21.7578 86.0323L21.0196 85.2038C20.9549 85.1556 20.8688 85.0813 20.7973 85.0407C18.3693 83.6671 17.1702 85.7454 16.714 86.3387C16.6634 86.4044 16.5864 86.4872 16.5351 86.5532C12.8258 91.3184 16.4253 99.6618 18.0522 104.092C21.9675 114.753 23.359 112.051 21.6302 118.492C19.3505 126.986 19.5274 126.972 18.2859 134.952C17.3624 132.922 17.1835 129.592 16.4517 126.737C15.1653 121.718 14.8194 119.953 12.568 115.458C11.0477 112.422 9.19183 108.831 4.26769 109.546C3.50654 110.869 3.18703 111.465 3.05553 113.015C2.70444 117.158 3.7545 119.92 5.58841 123.564C5.63603 123.659 5.95973 124.335 5.97009 124.354C7.88594 126.833 9.74861 130.565 12.2416 132.406L14.8845 135.181C15.2055 135.539 14.8487 135.109 15.3802 135.866L15.6975 136.342C15.7451 136.413 15.8115 136.504 15.8586 136.575L16.47 137.506C16.5146 137.575 16.5719 137.675 16.6168 137.742C17.9952 139.817 17.881 138.662 17.996 141.653L19.2802 161.582L16.6417 153.312C16.1564 151.942 15.5201 150.521 14.7656 149.325L12.5705 145.731C12.5248 145.662 12.4649 145.564 12.419 145.494C0.729092 130.242 9.70818 169.859 12.022 176.477C-0.12022 157.26 3.05553 189.012 9.74753 203.754H129.289C129.053 201.024 128.975 199.576 127.976 197.313L126.252 193.985C123.406 190.31 124.472 190.354 117.368 187.003C113.433 185.146 108.547 185.86 105.174 188.135C105.081 188.198 104.823 188.382 104.728 188.444L103.524 189.183C101.785 190.406 100.616 192.403 99.5652 194.188C99.2462 194.73 99.2151 194.83 98.9023 195.173C98.7224 193.776 98.5729 192.958 97.9331 191.74C97.7782 191.445 97.2724 190.532 97.0748 190.256C96.7202 189.76 96.7681 189.843 96.5423 189.619C92.3707 185.498 88.5857 183.6 82.5047 185.575L78.1053 187.745C77.376 188.218 77.3809 188.375 76.2828 189.012C79.8983 182.468 82.7961 173.816 78.5665 166.892C77.3607 164.919 74.8014 163.731 72.6574 163.125C67.1423 161.565 60.782 164.727 56.905 167.33L47.9879 176.919C48.1317 176.089 53.0418 166.085 54.1229 162.575C55.1411 159.27 55.3839 157.872 55.0869 153.95L53.9665 150.412C53.9221 150.341 53.8599 150.246 53.8128 150.178C51.4134 146.685 47.824 147.654 44.8073 149.355C44.2184 149.687 44.4942 149.524 44.0358 149.764C43.9536 149.807 43.8503 149.851 43.7681 149.894L41.1501 151.964C41.0983 152.017 41.0235 152.104 40.9703 152.157L39.177 153.853C37.6185 155.739 37.4505 155.343 36.6565 156.394L33.6763 161.175C32.57 162.988 31.2757 167.245 31.0578 168.68C31.218 164.653 34.4232 155.586 28.786 154.589C33.2893 149.388 39.3715 145.977 43.8451 140.699L46.9462 136.827C48.9086 133.501 49.7944 128.769 48.4075 125.362C47.6728 123.556 45.3637 123.024 42.7639 123.096C41.1175 123.64 40.3544 123.947 38.846 124.71C38.2393 125.017 37.6942 125.277 37.0604 125.698L33.0926 129.085C32.1898 130.101 31.8259 131.028 30.7442 131.849C30.1523 132.541 29.8351 133.633 28.0209 135.711C24.7335 139.474 22.0191 148.482 21.045 153.238C18.8097 141.683 20.196 128.635 24.3837 117.332C24.7525 116.336 24.3101 117.291 24.8233 116.234L25.318 115.35C25.3629 115.272 25.4399 115.146 25.5068 115.048C25.9568 114.604 40.1351 110.856 42.8456 109.535C48.4061 106.825 46.0099 107.91 50.2888 105.266C52.5286 103.882 54.6583 100.801 54.5137 98.3028C54.2929 94.4906 50.1615 94.2158 46.4305 94.6962C42.6951 95.177 40.5792 96.4995 38.0875 97.9897C33.3072 100.849 34.2428 100.515 31.9009 103.549C31.2162 104.435 31.1526 104.282 30.478 105.212L26.9856 109.878L36.8408 85.8749C37.6032 84.382 38.1847 84.108 39.5321 83.2725C41.5264 82.0358 42.028 82.1001 42.4785 80.7584C42.364 77.7821 40.6628 76.7804 38.6407 75.6868C37.5546 75.0994 36.5452 74.8471 35.1594 74.8839C33.192 74.9363 33.2236 75.3522 32.1202 76.539H32.1207Z" fill="#6AB18E"/>
<path d="M0 212H67.9994C66.5337 195.019 46.8241 193.147 37.658 203.217C36.2443 192.236 10.0001 188.5 5.45978e-05 202C0 206 0.00138315 208 0 212Z" fill="#6AB18E"/>
<path d="M162.999 212H61.9994C63.465 195.019 83.1746 193.147 92.3407 203.217C93.7544 192.236 119.756 187.924 129.756 201.424C152.496 187.5 162.999 199.703 162.999 212Z" fill="#6AB18E"/>
<path d="M157.999 212H258.999C257.533 195.019 237.824 193.147 228.658 203.217C227.244 192.236 201.243 187.924 191.243 201.424C168.502 187.5 157.999 199.703 157.999 212Z" fill="#6AB18E"/>
<path d="M321.001 212H252.999C254.465 195.019 274.174 193.147 283.34 203.217C284.754 192.236 311.001 188.5 321.001 202C321.001 206 321.001 208 321.001 212Z" fill="#6AB18E"/>
<path d="M274 212H341.999C340.534 195.019 320.824 193.147 311.658 203.217C310.244 192.236 284 188.5 274 202C274 206 274.001 208 274 212Z" fill="#6AB18E"/>
<path d="M436.999 212H335.999C337.465 195.019 357.175 193.147 366.341 203.217C367.754 192.236 393.756 187.924 403.756 201.424C426.496 187.5 436.999 199.703 436.999 212Z" fill="#6AB18E"/>
<path d="M431.999 212H532.999C531.533 195.019 511.824 193.147 502.658 203.217C501.244 192.236 475.243 187.924 465.243 201.424C442.502 187.5 431.999 199.703 431.999 212Z" fill="#6AB18E"/>
<path d="M595.001 212H526.999C528.465 195.019 548.174 193.147 557.34 203.217C558.754 192.236 585.001 188.5 595.001 202C595.001 206 595.001 208 595.001 212Z" fill="#6AB18E"/>
<path fill-rule="evenodd" clip-rule="evenodd" d="M462.43 142.39C461.515 140.209 462.317 137.299 459.621 130.562C456.115 123.827 452.285 116.749 443.972 115.269C440.372 114.628 434.818 115.572 433.442 119.705C429.104 132.736 453.225 137.175 460.849 145.601C462.304 147.21 462.632 148.946 463.975 150.581C468.611 140.418 472.041 130.645 482.476 123.683C490.867 118.084 484.483 104.151 474.6 115.884C473.005 117.777 471.889 120.487 470.716 122.801C469.647 124.91 468.057 129.314 467.5 131.317C466.666 133.992 466.327 138.449 464.41 140.519C465.177 137.911 464.478 120.597 464.633 114.529C464.756 109.681 464.765 106.961 465.615 102.221C466.654 96.4211 469.238 92.5118 468.738 84.4373C468.255 76.6469 460.163 78.5476 462.438 95.1417C463.182 100.568 464.086 105.592 463.471 111.425C462.962 116.242 463.551 139.922 462.43 142.391L462.43 142.39Z" fill="#E4ECE4"/>
<path fill-rule="evenodd" clip-rule="evenodd" d="M130.158 165.071C135.633 152.701 111.206 160.501 106.896 169.478C106.885 169.512 106.845 169.721 106.838 169.676C105.853 163.649 106.394 155.826 103.203 149.615C101.118 146.041 97.7496 143.288 93.6913 142.037C87.4146 140.104 82.7715 145.127 85.5501 152.198C89.4457 162.107 98.3464 166.652 105.096 174.163C107.98 177.16 106.404 176.033 107.309 177.815C110.931 174.836 112.785 173.687 117.146 172.161C120.992 171.124 128.192 169.514 130.158 165.071Z" fill="#E4ECE4"/>
<path fill-rule="evenodd" clip-rule="evenodd" d="M32.1206 76.5389C33.2239 75.3519 33.1923 74.936 35.1597 74.8839C36.5453 74.8471 37.5549 75.0996 38.641 75.6867C40.6632 76.7803 42.3643 77.7821 42.4788 80.7583C45.2266 80.172 46.87 80.6291 49.5894 79.3761C50.7345 78.8485 50.4964 78.9787 51.2921 78.3442C56.2604 74.382 51.302 72.7834 50.2778 72.242C51.7226 70.1716 59.7666 62.7056 55.2888 57.5241C52.3424 54.1144 46.8732 58.0511 44.1602 61.9083C44.0833 62.0177 43.8417 62.4195 43.7055 62.6246C43.2521 63.3073 43.3258 63.3896 42.6259 63.9174C42.6093 60.4442 42.9034 57.5626 41.8817 54.2978C41.1129 51.8402 39.5487 49.5494 36.9115 49.1127C30.0372 47.9749 30.5988 57.2829 31.1793 62.3889C29.7683 60.9688 27.3186 58.5414 24.2636 60.1079C20.5181 62.0286 21.9952 67.7619 24.1652 70.4545C25.0438 71.5447 24.3586 70.601 25.3721 71.5625L26.53 72.7413C28.3025 74.2605 30.182 74.6904 32.1206 76.5389Z" fill="#FBAA8E"/>
<path fill-rule="evenodd" clip-rule="evenodd" d="M563.698 167.393C566.526 169.759 567.876 166.33 567.282 177.888C567.141 180.611 566.891 183.663 567.635 186.014C568.135 181.437 568.864 168.597 569.724 164.701C571.341 157.373 576.664 161.883 584.125 154.973C585.814 153.409 588.603 150.257 588.891 147.998C589.582 142.575 582.85 143.662 578.524 147.429L574.02 152.195C573.352 153.174 573.654 153.19 572.562 153.988C572.417 145.418 576.886 142.045 582.175 135.58L583.169 134.237C590.756 122.828 581.288 121.508 577.283 127.548C574.453 131.816 574.347 137.657 572.235 141.255C571.837 137.838 571.814 134.158 569.842 132.481C565.657 128.921 557.115 135.845 567.865 146.479C569.047 147.647 570.166 148.275 570.892 149.164C571.063 151.347 569.554 160.18 568.888 162.178C567.127 161.643 567.883 161.45 566.769 160.151L566.156 158.207C565.173 155.269 561.41 147.796 557.189 149.278C553.173 150.688 555.485 160.321 557.768 162.397C558.825 164.73 561.149 166.297 563.698 167.393Z" fill="#FCC4A3"/>
<path fill-rule="evenodd" clip-rule="evenodd" d="M179.574 148.781C165.286 136.983 154.496 145.528 161.606 153.195C171.122 163.459 185.796 164.974 193.982 176.631C194.973 173.551 192.576 170.484 191.559 167.739C188.53 161.112 185.351 153.549 179.574 148.781Z" fill="#E4ECE4"/>
<path fill-rule="evenodd" clip-rule="evenodd" d="M219.623 195.112C219.598 192.929 220.488 189.977 220.905 188.043C222.284 181.639 229.236 178.566 230.36 172.27C230.694 170.4 230.908 168.178 229.035 167.077C223.171 163.634 219.876 176.301 219.574 179.325C219.204 183.022 219.589 181.052 218.698 182.03C218.467 179.721 218.433 178.484 217.62 176.221C215.749 171.012 210.946 172.759 210.468 175.319C209.399 181.036 217.218 187.308 218.71 192.887C219.022 194.054 219.371 197.051 219.047 198.171C221.036 193.161 231.984 191.411 235.926 186.443C237.92 181.081 232.883 180.776 228.841 183.64C224.966 186.385 223.054 190.108 220.747 194.087C220.149 194.806 220.3 194.607 219.623 195.113L219.623 195.112Z" fill="#E4ECE4"/>
<path fill-rule="evenodd" clip-rule="evenodd" d="M195.357 172.409C201.837 163.958 220.523 154.739 221.886 144.965C222.397 141.296 221.554 139.002 218.069 138.268C203.66 135.232 196.772 162.173 195.356 172.409L195.357 172.409Z" fill="#E4ECE4"/>
<path d="M333.68 145.564C333.037 146.346 332.532 146.014 332.532 146.014C332.532 146.014 329.024 135.749 327.402 133.369C325.711 130.887 320.374 124.677 317.289 128.986C312.74 135.341 324.381 140.492 327.847 143.387C330.383 146.125 332.298 148.043 333.5 151.577C334.737 155.211 334.759 160.466 335.234 161.473C335.606 162.262 336.179 162.564 336.92 162.988C335.873 157.615 335.734 152.835 338.703 148.553C342.561 142.991 349.473 140.408 352.608 134.188C358.25 122.993 343.409 123.23 340.295 133.113C338.601 138.487 335.65 144.415 335.826 150.187C333.5 141.577 338.599 122.53 336.143 112.96C335.889 111.968 335.384 110.464 334.718 109.738C322.685 101.424 333.412 143.009 333.68 145.564Z" fill="#E4ECE4"/>
<path fill-rule="evenodd" clip-rule="evenodd" d="M188.057 149.915C188.14 150.281 188.199 150.879 188.27 151.275C190.256 145.013 184.313 122.847 174.642 122.25C162.91 121.525 186.74 144.078 188.057 149.915Z" fill="#E4ECE4"/>
<path d="M136.602 203.783H206.82C208.179 203.995 206.06 194.532 204.381 191.591C201.244 186.094 193.465 185.692 189.478 188.858C188.163 189.903 186.742 191.276 185.646 192.557C184.684 189.877 182.539 182.73 180.472 179.693C161.567 151.925 132.97 179.693 136.602 203.783Z" fill="#6AB18E"/>
</svg>
