<svg width="4729" height="853" viewBox="0 0 4729 853" fill="none" xmlns="http://www.w3.org/2000/svg">
<path d="M3730.04 125.647C3747.19 165.815 3767.23 202.837 3795.78 239.729C3811.36 252.427 3823.67 262.176 3847.24 267.136C3846.91 272.371 3847.02 277.714 3845.21 282.816L3875.95 298.649C3870.54 320.002 3859.46 358.705 3841.88 376.131C3821.92 369.434 3801.68 362.994 3782.08 355.795C3797.79 367.572 3813.17 380.866 3829.95 391.821C3828.77 417.657 3768.67 454.858 3749.84 477.134C3714.44 459.591 3682.18 435.842 3649.93 415.338C3649.06 464.816 3650.73 467.902 3678.15 512.924C3669.3 515.947 3657.6 518.788 3650.05 523.118C3601.7 535.832 3554.44 542.38 3503.05 544.491L3492.05 542.883C3482.22 535.894 3473.08 472.675 3470.18 458.869C3465.14 485.922 3458.72 512.903 3452.88 539.878C3407.58 532.355 3370.35 517.598 3335.37 496.119C3341 481.773 3348.03 467.722 3354.8 453.631C3342.55 463.614 3329.48 473.179 3316.8 482.895C3305.2 474.529 3295 464.68 3285.7 455.004C3270.49 439.171 3213.63 367.868 3220.96 349.665C3244.86 97.607 3539.4 14.1259 3730.04 125.647Z" fill="#3A9174"/>
<path d="M4158.77 202.663C4187.58 196.371 4208.9 176.658 4232.62 172.109C4269.17 231.63 4272.63 270.942 4239.07 332.542C4227.58 353.636 4205.35 377.553 4204.16 400.418C4203.4 414.882 4209.93 429.434 4215.99 443.052C4240.48 498.052 4245.41 522.097 4220.3 578.004C4216.3 586.912 4208.47 605.616 4195.52 609.63C4192.25 610.645 4191.38 609.534 4188.52 608.468C4178.61 595.229 4182.51 532.708 4179.27 511.262C4174.29 478.159 4157.79 447.055 4150.11 414.425C4144.66 391.248 4146.34 368.617 4148.72 345.329C4147.69 341.96 4147.57 343.265 4148.28 340.441C4153.3 320.331 4167.33 271.943 4164.77 254.163C4162.92 241.366 4146.52 224.305 4148.4 212.41C4149.24 207.131 4153.47 205.852 4158.77 202.663Z" fill="#3D9075"/>
<path d="M4273.31 281.227C4302.12 274.935 4323.45 255.222 4347.17 250.673C4383.71 310.194 4387.17 349.507 4353.61 411.106C4342.12 432.201 4319.9 456.117 4318.7 478.983C4317.94 493.446 4324.48 507.998 4330.54 521.616C4355.02 576.617 4359.96 600.662 4334.84 656.569C4330.84 665.477 4323.01 684.18 4310.06 688.195C4306.79 689.21 4305.93 688.098 4303.07 687.032C4293.15 673.793 4297.05 611.272 4293.82 589.827C4288.83 556.723 4272.33 525.62 4264.66 492.99C4259.21 469.813 4260.88 447.181 4263.26 423.893C4262.24 420.524 4262.12 421.83 4262.82 419.005C4267.85 398.896 4281.87 350.508 4279.31 332.728C4277.47 319.931 4261.06 302.869 4262.95 290.974C4263.78 285.695 4268.01 284.417 4273.31 281.227Z" fill="#3D9075"/>
<path d="M486.412 340.151C457.609 333.859 436.279 314.145 412.561 309.597C376.013 369.118 372.557 408.43 406.114 470.029C417.608 491.124 439.832 515.041 441.027 537.906C441.784 552.37 435.251 566.922 429.189 580.54C404.703 635.54 399.77 659.585 424.886 715.492C428.888 724.4 436.718 743.103 449.662 747.118C452.935 748.133 453.8 747.022 456.661 745.956C466.573 732.717 462.678 670.196 465.91 648.75C470.897 615.647 487.397 584.544 495.071 551.913C500.522 528.736 498.842 506.105 496.463 482.817C497.49 479.448 497.611 480.753 496.906 477.929C491.88 457.819 477.858 409.431 480.418 391.651C482.26 378.854 498.667 361.792 496.781 349.897C495.943 344.619 491.713 343.34 486.412 340.151Z" fill="#3D9075"/>
<path d="M420.63 292.698C370.969 284.044 334.193 256.93 293.3 250.673C230.286 332.54 224.328 386.611 282.185 471.336C302.001 500.351 340.319 533.246 342.379 564.695C343.684 584.589 332.422 604.604 321.97 623.335C279.752 698.984 271.248 732.056 314.55 808.952C321.45 821.204 334.951 846.929 357.268 852.451C362.91 853.847 364.402 852.318 369.335 850.852C386.424 832.642 379.708 746.649 385.28 717.153C393.88 671.622 422.327 628.842 435.559 583.962C444.956 552.083 442.06 520.955 437.959 488.925C439.728 484.291 439.938 486.086 438.722 482.201C430.057 454.542 405.881 387.988 410.294 363.533C413.471 345.932 441.759 322.465 438.506 306.104C437.061 298.844 429.768 297.085 420.63 292.698Z" fill="#3D9075"/>
<path d="M4361.68 202.663C4390.48 196.371 4411.81 176.658 4435.53 172.109C4472.08 231.63 4475.53 270.942 4441.97 332.542C4430.48 353.636 4408.26 377.553 4407.06 400.418C4406.31 414.882 4412.84 429.434 4418.9 443.052C4443.39 498.052 4448.32 522.097 4423.2 578.004C4419.2 586.912 4411.37 605.616 4398.43 609.63C4395.15 610.645 4394.29 609.534 4391.43 608.468C4381.52 595.229 4385.41 532.708 4382.18 511.262C4377.19 478.159 4360.69 447.055 4353.02 414.425C4347.57 391.248 4349.25 368.617 4351.63 345.329C4350.6 341.96 4350.48 343.265 4351.18 340.441C4356.21 320.331 4370.23 271.943 4367.67 254.163C4365.83 241.366 4349.42 224.305 4351.31 212.41C4352.15 207.131 4356.38 205.852 4361.68 202.663Z" fill="#3D9075"/>
<path d="M1922.2 400.197C1918.97 407.729 1914.37 420.591 1903.76 424.56C1900.5 425.77 1896.87 426.28 1893.37 425.495C1882.44 423.057 1878.4 414.826 1873.7 408.145C1869.61 411.66 1866.82 414.826 1860.18 415.828C1853.38 413.673 1851.81 411.292 1848.52 406.529C1842.94 411.15 1838.82 414.316 1831.07 417.037C1825.26 417.141 1822.6 417.67 1818.46 414.155C1812.05 408.702 1811.98 399.1 1811.55 392.296C1804.35 394.356 1802.9 395.424 1795.19 394.007C1788.09 386.89 1789.97 379.415 1792.08 371.136C1796.52 353.719 1806.16 334.932 1822.1 321.219C1843.65 315.18 1866.81 310.36 1890.24 310.908C1909.72 308.81 1934.94 308.952 1953.72 313.366C1963.51 315.662 1966.07 319.225 1970.57 325.32C1970.81 325.443 1971.09 325.529 1971.29 325.689C1981.21 333.231 1998.58 353.946 1996.12 364.285C1994.9 369.388 1991.99 369.757 1986.22 372.374C1985.32 381.012 1990.23 392.74 1982.17 400.641C1979.86 402.9 1977.76 404.213 1973.91 404.723C1963.61 406.103 1955.43 402.295 1947.02 398.609C1944.1 402.039 1942.45 403.845 1937.43 405.791C1930.34 405.083 1927.87 403.183 1922.2 400.197Z" fill="#ABD39C"/>
<path d="M931.102 449.802C918.132 448.12 903.292 447.289 891.602 442.838C888.282 439.568 886.022 438.103 887.152 433.784C888.132 430.042 893.232 426.602 897.592 424.617C907.792 419.977 920.592 418.871 932.222 421.073C954.142 425.212 964.762 437.63 975.192 450.634L983.972 464.432L988.752 475.98C992.692 498 993.532 524.717 973.812 543.353C973.192 543.948 972.542 544.515 971.902 545.101C967.162 544.326 961.292 543.684 957.912 541.132C948.342 533.893 953.292 518.725 954.222 509.435C950.412 515.276 946.612 521.229 941.642 526.626C935.452 533.373 924.522 540.074 912.922 541.208C908.602 541.633 903.892 541 900.522 539.006C896.182 536.426 894.342 533.449 893.892 529.461C892.102 513.83 909.302 502.149 922.912 491.64C909.842 495.165 894.482 500.334 880.412 496.299C874.482 494.598 873.072 492.509 870.542 488.578C870.662 482.927 871.912 478.92 875.962 473.986C888.452 458.762 908.692 454.074 931.102 449.802Z" fill="#D07E7A"/>
<path d="M1103.57 391.435C1104.02 398.494 1104.32 406.971 1100.98 413.719L1097.73 413.152C1060.84 432.308 1024.45 449.34 983.972 464.432L975.192 450.634C1022.02 435.381 1063.46 414.087 1103.57 391.435Z" fill="#28605E"/>
<path d="M0 0.00384521L4729 0.00390625V505.036C4690.36 481.282 4664.46 480.412 4627.65 446.375C4426.29 576.388 4426.29 337.422 4426.29 337.422C4426.29 337.422 3473.95 203.207 3123.77 412C2845.28 528.606 2613.24 559.632 2331.49 406.902C2334.04 462.288 2326.48 536.829 2270.39 579.367C2251.51 593.688 2228.58 601.667 2201 602.95C2190.29 588.903 2181.54 573.865 2171.15 559.632C2006.04 329.299 1879.99 364.462 1654.5 393.791C1700.94 424.032 1705.12 469.157 1700.94 469.673C1642.65 476.871 1582.49 468.33 1532.65 437.403C1505.91 415.882 1485.16 394.593 1464.82 369.86C1424 407.967 1358.5 388.121 1335.5 364.422C1241.5 494.911 1067 509.087 982.94 333.372C942.205 351.403 905.414 359.511 858.04 364.422C880.366 508.149 741 596.504 657.025 583.813L638.791 581.17C625.776 578.368 613.075 574.061 600.517 570.331C582.584 560.703 565.991 550.797 550.662 539.096C521.181 512.615 506.76 485.01 495.17 452.571C473.583 443.296 453.119 433.774 437.37 419.529C433.021 416.056 431.077 413.343 424.632 412C384.347 430.387 348.192 449.276 301.836 460.063C288.335 463.421 273.096 465.848 258.88 467.072C198.965 472.229 149.953 454.717 104.258 428.942C92.1221 419.778 81.0755 409.961 69.8843 400.22C56 424.505 27 437.735 0 428.942V0.00384521Z" fill="#2F6C65"/>
<path d="M144.524 267.041C148.134 267.294 151.794 267.567 155.324 268.183C168.564 270.5 180.054 278.407 186.114 286.839C195.044 299.263 195.615 315.212 189.215 328.275C182.565 341.876 172.104 348.809 154.034 354.723C147.164 354.509 139.454 354.084 133.134 352.012C118.804 347.314 108.954 337.249 104.574 326.76C98.9945 313.398 100.904 297.947 110.474 285.721C118.614 275.335 128.864 270.538 144.524 267.041Z" fill="#ABD39C"/>
<path d="M144.236 290.911C150.836 292.262 155.216 293.401 160.276 296.993C165.436 300.649 167.666 306.22 167.176 311.271C166.296 320.174 160.746 324.943 151.676 330.697C144.316 329.499 139.026 328.539 133.996 324.313C129.116 320.2 126.966 315.119 127.876 309.78C129.396 300.793 134.666 296.527 144.236 290.911Z" fill="#FEFEFE"/>
<path d="M285.249 250.673C288.859 250.926 292.519 251.2 296.049 251.816C309.289 254.132 320.779 262.039 326.839 270.471C335.769 282.896 336.339 298.844 329.939 311.908C323.289 325.509 312.829 332.442 294.759 338.356C287.889 338.141 280.179 337.716 273.859 335.644C259.529 330.947 249.679 320.882 245.299 310.393C239.719 297.031 241.629 281.579 251.199 269.353C259.339 258.967 269.589 254.171 285.249 250.673Z" fill="#ABD39C"/>
<path d="M284.961 274.544C291.561 275.894 295.941 277.033 301.001 280.625C306.161 284.282 308.391 289.853 307.901 294.903C307.021 303.806 301.471 308.575 292.401 314.329C285.041 313.131 279.751 312.172 274.721 307.945C269.841 303.833 267.691 298.751 268.601 293.413C270.121 284.425 275.391 280.159 284.961 274.544Z" fill="#FEFEFE"/>
<path d="M216.523 162.288C220.133 162.541 223.793 162.815 227.323 163.431C240.563 165.747 252.053 173.654 258.113 182.086C267.043 194.511 267.613 210.459 261.213 223.523C254.563 237.124 244.103 244.057 226.033 249.971C219.163 249.756 211.453 249.331 205.133 247.259C190.803 242.562 180.953 232.497 176.573 222.008C170.993 208.646 172.903 193.194 182.473 180.968C190.613 170.582 200.863 165.786 216.523 162.288Z" fill="#ABD39C"/>
<path d="M216.235 186.159C222.835 187.509 227.215 188.648 232.275 192.24C237.435 195.896 239.665 201.468 239.175 206.518C238.295 215.421 232.745 220.19 223.675 225.944C216.315 224.746 211.025 223.787 205.995 219.56C201.115 215.448 198.965 210.366 199.875 205.028C201.395 196.04 206.665 191.774 216.235 186.159Z" fill="#FEFEFE"/>
<path d="M2821.91 343.28C2822.55 327.195 2826.68 286.709 2845.43 275.992C2850.41 273.148 2851.65 273.327 2857.46 274.017C2867.95 280.926 2869.62 290.82 2870.08 300.583C2870.91 317.943 2867.03 335.304 2863.16 352.39C2881.43 346.521 2905.75 342.722 2925.23 347.967C2933.8 350.283 2941.47 354.696 2945.12 360.773C2948.73 366.774 2948.02 373.54 2944 379.343C2936.8 389.738 2921.04 395.928 2905.91 398.99C2894.22 401.353 2882.36 401.929 2870.28 401.816C2871.61 418.506 2876.82 452.896 2859.82 466.457C2856.74 468.924 2855.72 468.688 2851.49 469.529C2843.91 467.403 2840.84 463.991 2837.62 458.869C2827.44 442.68 2826.34 421.974 2825.94 404.5L2803.22 415.85C2793.37 419.167 2781.31 422.909 2770.47 423.958C2762.38 424.743 2755.74 424.006 2749.22 420.32C2746.05 416.549 2744.81 413.714 2745.85 409.348C2749.6 393.66 2769.32 383.321 2786.36 374.703C2762 365.781 2748.84 356.246 2739.23 338.101C2743.54 331.372 2746.54 326.836 2757.01 324.275C2770.55 320.967 2784.86 324.908 2796.71 329.652C2805.82 333.3 2814.24 338.243 2821.91 343.28Z" fill="#59A891"/>
<path d="M2829 358.875C2836.61 358.923 2842.84 359.187 2848.74 363.052C2854 366.511 2856.72 371.51 2856.74 376.548C2856.76 386.017 2851.71 392.472 2842.54 399.03C2834.93 398.747 2829.36 398.425 2823.41 394.674C2818.68 391.687 2815.8 386.83 2815.5 382.416C2814.8 372.342 2819.72 366.114 2829 358.875Z" fill="#359099"/>
<path d="M4589.48 123.954C4588.84 107.869 4584.71 67.3834 4565.96 56.6665C4560.98 53.8219 4559.74 54.0014 4553.93 54.6913C4543.44 61.5996 4541.77 71.4944 4541.31 81.2567C4540.48 98.6172 4544.36 115.978 4548.23 133.064C4529.96 127.195 4505.64 123.396 4486.16 128.641C4477.59 130.957 4469.92 135.37 4466.27 141.447C4462.66 147.448 4463.37 154.214 4467.39 160.017C4474.59 170.412 4490.35 176.603 4505.48 179.665C4517.17 182.027 4529.03 182.604 4541.11 182.49C4539.78 199.18 4534.57 233.57 4551.57 247.132C4554.65 249.598 4555.67 249.362 4559.9 250.203C4567.48 248.077 4570.55 244.665 4573.77 239.543C4583.95 223.354 4585.05 202.648 4585.45 185.174L4608.17 196.524C4618.02 199.841 4630.08 203.584 4640.92 204.633C4649.01 205.417 4655.65 204.68 4662.17 200.994C4665.34 197.224 4666.58 194.388 4665.54 190.022C4661.79 174.334 4642.07 163.996 4625.03 155.377C4649.39 146.456 4662.55 136.92 4672.16 118.775C4667.85 112.046 4664.85 107.51 4654.38 104.949C4640.84 101.641 4626.53 105.582 4614.68 110.326C4605.57 113.974 4597.15 118.917 4589.48 123.954Z" fill="#59A891"/>
<path d="M4582.39 139.549C4574.78 139.597 4568.55 139.861 4562.65 143.726C4557.39 147.185 4554.67 152.185 4554.65 157.222C4554.63 166.691 4559.68 173.146 4568.85 179.704C4576.46 179.421 4582.03 179.1 4587.98 175.348C4592.71 172.361 4595.59 167.504 4595.89 163.09C4596.59 153.016 4591.67 146.788 4582.39 139.549Z" fill="#359099"/>
</svg>
