<svg width="221" height="119" viewBox="0 0 221 119" fill="none" xmlns="http://www.w3.org/2000/svg">
<path d="M210.003 68.1339C210.232 68.1106 210.46 68.0934 210.691 68.0934C211.228 68.0936 211.85 68.144 212.233 68.5248C213.123 69.409 212.857 72.0611 212.747 73.1921C212.671 73.982 212.516 75.225 211.784 75.7716C211.805 75.786 211.827 75.7988 211.846 75.8144C212.607 76.426 213.659 79.1141 214.29 80.0881C215.762 82.3612 218.005 84.1918 219.388 86.522C219.998 87.5493 220.423 88.6399 220.579 89.7965C220.836 91.7062 220.229 93.4246 218.878 94.9174C217.306 96.6532 215.051 97.8178 212.548 98.0456C208.589 98.4059 204.981 96.8615 202.571 94.0826C202.002 93.4275 201.581 92.3944 200.869 91.8876C200.852 91.8761 200.836 91.8651 200.819 91.8539C200.805 91.8966 200.788 91.9387 200.77 91.9801C200.577 92.4147 199.897 92.9526 199.515 93.275C197.756 94.7602 195.884 96.0953 193.62 96.9164C191.722 97.6044 189.78 97.8359 187.747 97.8149C179.178 97.7261 180.719 91.6889 178.268 91.0035C177.924 90.9072 177.411 91.2 177.131 91.3744C176.42 91.8169 175.831 92.3998 175.195 92.9199C173.674 94.1623 172.026 95.4852 170.218 96.3898C168.459 97.27 166.14 97.7816 164.152 97.2661C163.149 97.0063 162.377 96.4162 161.958 95.5628C160.55 92.6987 162.341 86.3437 162.901 83.218C163.192 81.5912 163.45 79.8425 163.22 78.1952C163.102 77.3464 162.763 76.6791 162.31 75.9335C160.655 76.5764 159.008 77.9213 157.874 79.1384C154.749 82.4926 153.73 86.3922 153.247 90.6459C153.056 92.3273 153.261 94.5834 152.094 95.9922C151.536 96.6652 150.717 97.0413 149.796 97.1509C148.897 97.2581 148.087 97.1399 147.355 96.6498C146.202 94.7546 147.367 88.0237 147.423 85.5538C147.485 82.8676 147.456 80.1534 147.276 77.4715C146.956 77.2037 146.658 76.9429 146.389 76.6333C144.836 77.1765 143.501 78.3709 142.506 79.5331C140.263 82.1548 139.098 85.4857 138.753 88.7383C138.507 91.064 139.46 95.6641 137.638 97.4324C136.993 98.0578 136.054 98.2552 135.134 98.28C134.173 98.3061 133.227 98.1391 132.515 97.5186C130.599 95.8496 130.975 90.8249 130.969 88.6087C130.535 89.4971 130.012 90.3774 129.477 91.2214C127.668 94.0735 124.822 96.9444 121.162 97.8327C119.473 98.2426 117.429 98.2531 115.879 97.4472C112.791 95.8413 112.853 92.2588 112.073 89.5208C111.61 90.0162 111.246 90.5992 110.832 91.1281C109.801 92.4424 108.6 93.6655 107.169 94.6461C105.28 95.9404 103.123 96.4092 100.762 96.1218C98.8236 95.886 97.0459 94.8063 95.8872 93.4291C94.2493 91.4819 94.3041 88.0648 94.6877 85.7463C95.31 81.9862 97.835 77.9744 101.294 75.7028C104.605 73.5284 109.271 73.1002 113.248 73.6526C113.689 73.6716 114.167 73.7244 114.593 73.8286C114.981 73.9236 115.251 74.0212 115.456 74.3407C115.458 74.4897 115.472 74.542 115.363 74.6653C114.556 75.5823 109.788 75.6585 108.463 75.8564C106.867 76.0949 105.547 76.7448 104.607 77.932C102.49 80.6025 100.745 88.0154 101.376 91.2144C101.676 92.7355 102.589 93.7695 103.993 94.6386C109.956 91.9283 112.204 83.0191 114.666 77.9602C115.186 76.8903 115.767 75.5433 116.837 74.8164C116.896 74.7756 116.957 74.7377 117.021 74.7025C117.084 74.6673 117.149 74.6349 117.216 74.6055C117.283 74.5762 117.351 74.5499 117.421 74.5268C117.491 74.5035 117.562 74.4835 117.634 74.4668C117.706 74.45 117.779 74.4366 117.853 74.4263C117.927 74.4161 118.001 74.4092 118.076 74.4057C118.15 74.4022 118.224 74.402 118.299 74.4052C118.374 74.4084 118.448 74.4149 118.522 74.4249C119.064 74.4993 119.496 74.7407 119.8 75.1479C121.419 77.316 119.022 81.7164 118.548 84.0834C118.213 85.7532 117.622 93.5508 118.614 94.7943C118.725 94.8537 118.816 94.9015 118.948 94.9113C120.411 95.0178 122.023 93.3479 122.986 92.5271C125.685 90.2251 128.405 87.8407 130.298 84.9425C130.881 84.0494 131.43 83.11 131.83 82.1382C132.877 79.5889 133.686 75.2442 136.2 73.5782C136.693 73.2516 137.275 73.0571 137.895 73.1489C138.815 73.2852 139.501 73.919 140.022 74.5601C139.989 76.8109 139.761 77.8789 139.108 80.084C139.749 79.4494 140.268 78.7702 140.841 78.0886C142.222 76.4445 145.064 74.7481 147.369 74.4653C148.543 74.3214 149.588 74.555 150.522 75.2021C153.055 76.9564 152.719 79.3784 153.084 81.9161C153.84 81.2257 154.429 80.4222 155.07 79.6494C156.7 77.6867 159.114 74.6805 161.738 73.7879C162.623 73.487 163.514 73.4751 164.379 73.8294C171.7 76.8271 164.582 87.6565 166.838 93.0153C167.065 93.5559 167.43 94.2678 168.067 94.5004C169.137 94.8913 170.543 93.6238 171.189 93.0145C173.321 91.0025 175.242 88.7194 176.659 86.253C178.402 83.2199 179.768 79.8224 182.122 77.1139C183.293 75.766 184.755 74.7933 186.522 74.1334C188.619 73.35 191.702 72.9305 193.863 73.7489C194.601 74.0282 195.188 74.5161 195.486 75.1841C195.986 76.302 195.644 77.7435 195.291 78.8547C194.314 81.9313 191.951 84.825 188.934 86.5621C187.775 87.229 184.099 88.2355 183.648 89.2797C183.428 89.7902 183.667 90.4123 183.928 90.879C184.653 92.1787 186.193 93.3465 187.741 93.7962C190.334 94.5497 193.472 93.6447 195.819 92.5836C202.447 89.5861 205.456 82.8142 206.255 76.5912C206.502 74.6636 206.17 72.6772 206.88 70.8019C207.37 69.508 208.694 68.7186 210.003 68.1339ZM207.942 95.3274C209.532 95.6825 211.029 95.9522 212.526 95.1535C213.538 94.6133 214.272 93.6948 214.552 92.6787C214.834 91.6526 214.72 90.5358 214.398 89.5285C213.725 87.42 212.267 85.5748 211.266 83.5881C210.754 82.5719 210.291 81.5302 209.822 80.4976C209.631 80.0771 209.455 79.491 209.173 79.1197C209.065 78.9774 208.956 78.9037 208.783 78.8331L208.398 78.8642C208.71 79.6437 206.135 84.3994 205.594 85.4132C204.574 87.3232 203.187 89.8233 201.305 91.1843C202.241 91.5073 207.224 94.6689 207.942 95.3274ZM185.27 85.5793C188.728 83.3284 192.852 80.9573 193.575 76.8637C193.644 76.4736 193.694 76.0472 193.419 75.7066C193.117 75.3314 192.573 75.1864 192.08 75.1329C191.58 75.0785 191.06 75.1234 190.561 75.1588C187.552 76.1248 185.501 77.5655 184.133 80.1768C183.347 81.676 182.625 84.4513 183.038 86.1284C183.301 86.2688 183.56 86.2719 183.855 86.2005C184.329 86.0861 184.84 85.7924 185.27 85.5793Z" fill="#003793"/>
<path d="M51.5252 76.3633L51.5589 76.262C52.0886 74.6289 52.1458 72.8594 52.6281 71.1941C54.2577 65.5681 58.2074 60.1919 63.9581 57.2935C69.0629 54.7206 75.8691 53.8061 81.5514 55.23C84.2106 55.8964 86.5737 57.2594 87.9433 59.4434C89.2719 61.5623 89.6557 64.5483 88.9103 66.883C88.8717 67.0075 88.8297 67.131 88.7842 67.2535C88.7388 67.3761 88.6899 67.4976 88.6377 67.618C88.5854 67.7384 88.5298 67.8576 88.4709 67.9756C88.4121 68.0936 88.3499 68.2102 88.2845 68.3254C88.2191 68.4406 88.1505 68.5543 88.0787 68.6665C88.007 68.7787 87.9322 68.8892 87.8543 68.998C87.7764 69.1069 87.6954 69.214 87.6115 69.3194C87.5277 69.4247 87.441 69.5281 87.3513 69.6295C87.2616 69.731 87.1692 69.8305 87.074 69.9279C86.9788 70.0253 86.881 70.1205 86.7805 70.2136C86.68 70.3067 86.577 70.3974 86.4714 70.486C86.3657 70.5745 86.2578 70.6606 86.1475 70.7444C86.037 70.8281 85.9244 70.9094 85.8096 70.9882C85.6946 71.067 85.5775 71.1432 85.4583 71.2168C85.3392 71.2904 85.218 71.3614 85.0949 71.4296C84.9718 71.4979 84.8468 71.5634 84.7201 71.6261C82.3537 72.7918 79.1159 73.0901 76.5221 72.4237C74.9975 72.032 73.7014 71.1735 72.9371 69.926C72.8841 69.8378 72.8336 69.7485 72.7857 69.6581C72.7377 69.5677 72.6923 69.4763 72.6494 69.3839C72.6065 69.2914 72.5661 69.1981 72.5284 69.1041C72.4906 69.0099 72.4554 68.9149 72.4228 68.8191C72.3903 68.7234 72.3605 68.6271 72.3334 68.5302C72.3062 68.4331 72.2817 68.3355 72.2598 68.2374C72.2382 68.1393 72.2191 68.0408 72.2028 67.9418C72.1865 67.843 72.1729 67.7438 72.162 67.6442C72.1512 67.5447 72.1432 67.445 72.1379 67.3452C72.1327 67.2453 72.1301 67.1453 72.1302 67.0454C72.1304 66.9453 72.1334 66.8454 72.1392 66.7455C72.1451 66.6457 72.1536 66.5461 72.1649 66.4467C72.1762 66.3471 72.1902 66.2479 72.207 66.1491C72.2238 66.0502 72.2432 65.9517 72.2654 65.8537C72.2876 65.7557 72.3125 65.6583 72.3402 65.5614C72.3678 65.4644 72.3981 65.3682 72.4311 65.2726C72.874 63.9985 73.8633 62.9829 75.1887 62.3694C76.636 61.6995 78.7695 61.3447 80.3629 61.7866C80.5186 61.8298 80.5661 61.8282 80.645 61.9568C79.4029 62.8909 76.955 61.4045 75.5882 64.0595C75.4999 64.2349 75.4199 64.4133 75.3484 64.5947C75.2769 64.776 75.214 64.9598 75.1597 65.1459C75.1055 65.3319 75.0601 65.5196 75.0236 65.7091C74.9871 65.8986 74.9596 66.0891 74.941 66.2806C74.8295 67.4582 75.1523 68.5673 76.0303 69.4705C76.0768 69.5174 76.1246 69.5633 76.1736 69.6082C76.2228 69.653 76.2731 69.6968 76.3245 69.7394C76.3759 69.7821 76.4285 69.8236 76.4822 69.8641C76.536 69.9045 76.5909 69.9437 76.6468 69.9817C76.7026 70.0197 76.7595 70.0565 76.8174 70.092C76.8753 70.1276 76.9341 70.1619 76.9938 70.1949C77.0537 70.2279 77.1143 70.2596 77.1758 70.29C77.2373 70.3203 77.2996 70.3493 77.3627 70.377C77.4259 70.4046 77.4897 70.4309 77.5542 70.4559C77.6187 70.4807 77.6839 70.5042 77.7497 70.5263C77.8156 70.5484 77.882 70.569 77.949 70.5882C78.016 70.6073 78.0834 70.625 78.1513 70.6413C78.2192 70.6575 78.2876 70.6723 78.3563 70.6856C78.4251 70.699 78.4942 70.7108 78.5635 70.721C78.6329 70.7313 78.7025 70.7401 78.7724 70.7474C78.8423 70.7547 78.9123 70.7604 78.9825 70.7647C80.4692 70.8584 81.9044 70.3304 83.0016 69.4538C83.0749 69.3964 83.1464 69.3374 83.2163 69.2769C83.2861 69.2164 83.3542 69.1543 83.4206 69.0906C83.4869 69.027 83.5514 68.962 83.6141 68.8954C83.6768 68.8289 83.7376 68.761 83.7965 68.6917C83.8552 68.6225 83.9121 68.552 83.967 68.4802C84.0218 68.4085 84.0745 68.3355 84.1252 68.2614C84.1759 68.1871 84.2245 68.1119 84.2709 68.0356C84.3173 67.9592 84.3615 67.8819 84.4036 67.8036C84.4457 67.7252 84.4855 67.646 84.523 67.5658C84.5605 67.4857 84.5958 67.4048 84.6288 67.3231C84.6618 67.2414 84.6925 67.1591 84.7208 67.0761C84.7491 66.993 84.775 66.9093 84.7985 66.8251C84.8221 66.7409 84.8434 66.6562 84.8622 66.571C84.8809 66.4858 84.8972 66.4002 84.9111 66.3143C84.9251 66.2285 84.9366 66.1423 84.9456 66.0558C84.9546 65.9694 84.9612 65.8828 84.9654 65.7961C85.0749 63.6072 84.5405 60.3005 82.8518 58.6517C81.4489 57.282 79.3287 56.7939 77.3132 56.7339C73.3225 56.6151 69.2563 57.7108 66.317 60.1768C62.2167 63.617 59.6412 70.0167 59.4942 74.9604C59.3552 79.6364 61.2713 84.8873 64.9481 88.3078C66.5564 89.8039 68.5746 90.8159 70.9377 90.8426C74.3461 90.8813 77.9326 88.9943 80.3035 86.9072C81.637 85.7336 82.8446 84.4058 83.7147 82.9216C85.1003 80.5578 85.875 75.75 89.7077 75.8396C90.1601 75.8504 90.6372 75.9457 90.9458 76.2632C91.299 76.6264 91.4012 77.2199 91.4408 77.686C91.6441 80.0825 91.2131 82.5427 90.9518 84.9213C90.6486 87.6819 90.3973 90.4436 90.04 93.1999C89.8431 94.7182 89.3559 96.2393 89.3158 97.7617C89.6669 98.2326 89.9605 98.61 90.4898 98.9333C92.0766 99.9028 97.0502 100.736 96.5774 103.112C96.5457 103.271 96.4508 103.352 96.2925 103.423C95.6311 103.722 94.282 103.336 93.6389 103.121C92.0653 102.595 89.4217 100.792 87.7649 101.409C86.6082 101.84 85.9407 103.329 85.5331 104.295C85.0025 105.554 84.6093 106.854 84.0393 108.101C82.2938 111.918 79.3398 115.793 75.0009 117.553C74.0938 117.921 73.1369 118.192 72.2325 118.559H68.824C67.4038 117.745 65.793 117.597 64.6068 116.402C63.3885 115.175 62.8947 113.54 63.0104 111.925C63.354 107.135 70.93 101.268 75.7294 99.7222C78.3784 98.8689 81.4183 99.5685 83.6443 97.8058C83.8869 97.1915 84.0477 96.5912 84.1547 95.9468C84.3899 94.5313 84.3732 93.0829 84.5201 91.6589C84.6412 90.4853 85.1987 88.8519 84.9998 87.7259C84.5602 87.6494 83.246 88.697 82.861 88.9714C80.014 91.0008 78.2347 92.1194 74.6063 92.8725C69.6215 93.9072 63.8679 93.2555 59.5035 90.8196C55.9526 88.8377 53.3338 85.8299 52.2664 82.204C51.9277 81.0535 51.8246 79.8599 51.5252 78.7006V76.3633ZM67.9979 115.033C69.3359 115.686 70.8451 115.808 72.3102 115.423C75.2199 114.658 77.6001 112.053 78.9895 109.738C80.4843 107.247 81.491 104.344 82.1781 101.598C81.7841 101.582 81.3847 101.55 80.9937 101.607C76.1245 102.058 71.1508 103.642 67.9681 107.111C66.7738 108.413 65.7954 110.202 65.9894 111.926C66.1211 113.095 66.8874 114.252 67.9183 114.977L67.9979 115.033Z" fill="#003793"/>
<path d="M37.1787 0C37.4135 0.00567606 37.5044 -0.0271806 37.6857 0.114252C37.7126 0.256362 37.2476 1.70252 37.2289 2.2733C37.1726 4.00591 37.321 5.74678 37.2397 7.47981C37.1804 8.74686 37.0041 10.0246 36.8729 11.2886C36.5884 14.014 36.2718 16.7363 35.9234 19.4557C35.2039 25.1642 34.6056 31.0444 33.0966 36.631C31.201 43.6487 27.4928 50.9276 20.3611 54.8205C16.7073 56.815 12.1831 57.7598 7.97207 56.8173C5.22544 56.2025 3.05925 54.731 1.62585 52.5412C0.0803727 50.1803 -0.427346 46.5257 0.380542 43.861C1.05711 41.6293 2.77613 39.6239 5.03091 38.5001C7.26407 37.3873 10.5631 36.8066 13.0445 37.4496C13.8515 37.6589 14.8259 38.0287 15.2196 38.742C15.3362 38.9534 15.3896 39.1963 15.2946 39.4225C14.8524 40.4762 10.7676 40.1499 9.61952 40.2468C8.6776 40.3262 7.71258 40.5156 6.84852 40.868C6.74708 40.91 6.64687 40.9543 6.54788 41.0008C6.44887 41.0473 6.35122 41.096 6.25491 41.1468C6.15861 41.1976 6.06376 41.2505 5.97037 41.3055C5.87699 41.3606 5.78518 41.4177 5.69494 41.4768C5.6047 41.536 5.51614 41.5971 5.42927 41.6602C5.34242 41.7232 5.25735 41.7882 5.17407 41.855C5.09079 41.9218 5.0094 41.9905 4.9299 42.0609C4.85042 42.1314 4.77292 42.2036 4.69742 42.2775C4.6219 42.3513 4.54847 42.4268 4.47712 42.504C4.40579 42.5812 4.33663 42.6599 4.26963 42.7402C4.20262 42.8205 4.13788 42.9021 4.0754 42.9853C4.0129 43.0683 3.95274 43.1528 3.89491 43.2386C3.83709 43.3243 3.78166 43.4114 3.72863 43.4997C3.6756 43.5879 3.62504 43.6773 3.57695 43.7678C3.52885 43.8582 3.48329 43.9497 3.44024 44.0423C3.39719 44.1348 3.35672 44.2283 3.31884 44.3226C2.54969 46.1875 2.71428 48.2821 3.65955 50.0703C4.63976 51.9246 6.34321 53.3997 8.52179 54.0654C10.8836 54.787 13.2733 54.2194 15.4401 53.263C21.5901 50.5484 23.7852 44.0639 25.8214 38.6662C28.076 32.9666 29.2327 27.0337 30.3078 21.0814C30.7737 18.5012 31.298 15.9208 31.6546 13.328C31.8227 12.1076 31.8745 10.876 32.0363 9.65518C32.2109 8.33816 32.8787 5.584 32.4879 4.39918C32.4115 4.34508 32.4137 4.33911 32.3061 4.30506C30.9726 3.88317 16.8167 7.68131 14.8512 8.3192C14.3476 8.48033 13.8543 8.66356 13.3713 8.86889C12.8881 9.07423 12.4176 9.30066 11.9597 9.54817C8.94005 11.1915 6.10073 13.8531 5.27578 17.0004C4.88034 18.5092 5.14615 19.9137 6.06079 21.2288C7.07089 22.6811 8.79902 23.8387 10.6697 24.2124C12.0861 24.4955 13.8188 24.3586 15.0566 23.6368C17.9795 21.9326 16.405 18.3038 17.0131 15.7908C17.082 15.5068 17.1574 15.3231 17.4331 15.1606C17.7286 15.1062 18.0125 15.1451 18.2703 15.2973C18.7212 15.5634 18.9603 16.4547 19.0603 16.9115C19.5274 19.0461 19.3175 21.597 17.9271 23.4395C16.8391 24.8816 15.032 25.752 13.15 26.0586C10.8928 26.4264 8.42875 26.0325 6.53912 24.8436C4.58791 23.616 3.33305 21.6544 2.92198 19.5651C2.37507 16.7855 3.18789 14.0285 5.00772 11.7493C9.54751 6.06356 20.0305 4.37753 27.106 2.53501C30.4423 1.66623 33.7407 0.508152 37.1787 0Z" fill="#003793"/>
<path fill-rule="evenodd" clip-rule="evenodd" d="M116.101 23.8073C115.375 23.3284 114.53 23.0061 113.796 22.5261C111.742 21.1814 110.195 18.9628 109.379 16.8181C108.331 14.0658 108.32 10.9515 109.778 8.31193C109.848 8.18653 109.921 8.06274 109.998 7.94054C110.074 7.81834 110.154 7.69789 110.237 7.57918C110.32 7.46048 110.407 7.34367 110.496 7.22874C110.586 7.11381 110.678 7.0009 110.774 6.89002C110.87 6.77913 110.968 6.6704 111.07 6.56384C111.172 6.45727 111.276 6.35298 111.383 6.25097C111.49 6.14895 111.6 6.04934 111.713 5.95214C111.826 5.85493 111.941 5.76024 112.059 5.66807C112.176 5.5759 112.297 5.48635 112.419 5.39943C112.542 5.31251 112.667 5.22832 112.794 5.14686C112.921 5.0654 113.05 4.98677 113.182 4.91096C113.313 4.83515 113.447 4.76226 113.582 4.69229C113.718 4.6223 113.855 4.55532 113.994 4.49135C114.133 4.42737 114.274 4.36646 114.416 4.30863C114.558 4.2508 114.702 4.19612 114.848 4.14459C114.993 4.09304 115.14 4.0447 115.288 3.99957C117.368 3.38168 119.99 3.40811 121.964 4.31844C124.11 5.30821 124.697 6.9891 125.369 8.91519L125.393 8.98569C125.701 8.24897 126.15 7.44653 126.706 6.83726C127.46 6.01071 128.531 5.51951 129.714 5.42429C131.091 5.31345 132.575 5.62436 133.636 6.44586C134.433 7.06261 135.019 8.01431 135.074 8.96642C135.109 9.56847 134.901 10.1352 134.438 10.5777C133.448 11.5229 132.014 11.5236 130.676 11.5576C133.904 13.3567 136.043 13.2962 139.688 13.0628C141.061 12.9749 142.398 12.9823 143.741 13.2967C145.778 13.7735 148.002 15.2549 149.041 16.9048C149.507 17.6449 149.728 18.6385 149.442 19.4668C149.081 20.5152 147.746 21.8841 146.644 22.3702C146.87 22.7738 146.944 23.273 146.795 23.7099C146.412 24.827 144.909 25.7064 143.821 26.2175C142.231 26.9648 141.024 26.6373 139.4 26.1907C140.124 26.8422 141.065 27.54 141.417 28.4254C141.85 29.5118 140.684 32.501 140.136 33.5851C139.554 34.7358 138.855 34.8658 137.611 35.2932C137.153 35.4505 136.679 35.5766 136.466 36.0079C136.448 38.2755 138.904 39.0397 140.345 40.5114C141.126 41.3098 141.586 42.386 142.038 43.3584C143.176 45.8069 144.232 48.7049 146.356 50.6265C148.047 52.1565 150.105 52.846 152.489 52.8566C155.271 52.8691 158.543 52.1114 160.556 50.2969C161.539 49.412 162.473 48.1188 162.461 46.8246C162.427 43.1748 154.374 41.8321 151.832 39.5811C150.327 38.2478 149.913 36.2619 149.915 34.4259C149.916 34.2005 149.922 33.9753 149.935 33.7501C149.948 33.5251 149.967 33.3005 149.992 33.0761C150.018 32.8519 150.049 32.6284 150.086 32.4055C150.123 32.1826 150.167 31.9606 150.216 31.7396C150.266 31.5187 150.321 31.2989 150.382 31.0804C150.443 30.8618 150.511 30.6447 150.584 30.4291C150.657 30.2134 150.736 29.9995 150.821 29.7873C150.905 29.5752 150.996 29.365 151.092 29.1568C151.188 28.9486 151.29 28.7426 151.398 28.5388C151.505 28.335 151.618 28.1337 151.736 27.9349C151.854 27.7362 151.978 27.5401 152.107 27.3467C152.236 27.1533 152.37 26.9628 152.51 26.7754C152.649 26.5878 152.793 26.4034 152.943 26.2222C153.092 26.0411 153.246 25.8633 153.406 25.6888C153.565 25.5144 153.728 25.3436 153.897 25.1763C154.065 25.0091 154.238 24.8456 154.415 24.6859L154.447 24.6576C154.858 24.2926 155.309 23.8925 155.921 23.8933C157.49 24.531 155.114 27.711 156.805 29.2472C157.503 29.8805 158.943 30.1095 159.865 30.4152C161.984 31.1182 164.931 32.635 166.17 34.3577C166.4 34.6768 166.672 35.1584 166.576 35.5412C167.796 35.0432 168.301 33.7213 169.587 33.1757C172.698 31.8551 176.693 32.5698 179.276 30.1241C180.604 28.8675 181.181 25.3555 182.359 24.9149C185.132 23.8793 182.294 36.3951 181.822 37.3374C179.986 41.0062 176.863 42.5095 172.928 43.9128C171.465 44.4344 170.024 44.9782 168.939 46.0418C167.88 47.0799 166.963 48.4318 166.35 49.7249C165.573 51.3643 165.044 53.051 163.813 54.4859C161.112 57.6356 157.179 59.461 153.158 60.8904C150.872 61.7027 148.54 62.3887 146.095 62.6812C143.427 63.0004 140.65 62.8554 138.008 62.4255C135.747 62.0575 133.459 61.3654 131.542 60.215C126.743 57.3354 124.3 51.802 123.204 46.9076C122.952 45.784 122.401 41.5125 121.563 40.9367C120.903 41.0771 119.623 43.4925 119.169 44.1431C117.689 46.263 115.673 48.2347 112.851 48.8012C110.778 49.2173 108.541 48.9275 106.743 47.8922C103.642 46.1059 103.434 43.3265 102.738 40.3828C101.537 41.3115 100.686 42.6714 99.7676 43.8252C98.981 44.8212 98.1164 45.7593 97.1739 46.6395C95.3784 48.3062 92.3854 50.2239 89.7202 50.2382C88.2491 50.2461 86.5503 49.3491 85.5479 48.4307C81.9353 45.1213 84.5863 39.119 85.4473 35.2312C85.7487 33.8694 85.8746 32.5642 85.8925 31.1774L85.7851 31.089C84.2574 29.8528 81.7154 28.7391 79.6128 28.8517C76.8251 29.0011 75.0548 34.5071 74.2434 36.4439C73.7933 37.519 73.293 38.5749 72.7427 39.6117C71.5962 41.7932 70.1851 43.9563 68.3855 45.7597C66.2676 47.8822 63.4169 49.8642 60.1282 50.0025C58.9241 50.0531 57.7611 49.8314 56.8555 49.0849C54.3221 46.9962 54.3459 42.8421 54.2208 39.9808C53.6612 40.9774 52.9423 41.9681 52.239 42.89C50.4219 45.2726 47.0475 48.9171 43.7283 49.4375C42.0612 49.699 40.2536 48.9511 38.9313 48.0953C36.9149 46.7905 35.9799 44.9265 35.6131 42.7674C34.9019 38.5815 36.5515 32.3806 39.4022 28.965C41.817 26.0716 45.468 24.3105 49.426 23.8088C51.0589 23.6018 56.4461 23.4615 57.7108 24.4C57.8799 24.5254 57.8589 24.5742 57.872 24.7586C56.7791 26.2691 51.3978 25.8183 49.4713 26.2839C48.1516 26.6029 46.9815 27.2373 45.9811 28.0655C42.6556 30.8189 40.5732 35.4214 40.4071 39.451C40.3276 41.3792 40.7496 43.8252 42.3259 45.2703C42.718 45.6299 43.1316 45.778 43.6892 45.7861C49.4678 45.8689 51.771 39.9693 53.5367 36.0512C54.3537 34.2387 55.2466 32.4287 55.9743 30.5862C56.635 28.913 57.1653 26.6329 58.68 25.4016C59.5847 24.6665 60.7589 24.5915 61.9213 24.6563C62.0972 27.7277 61.172 29.8465 60.6096 32.7457C59.996 35.9092 59.1254 44.0381 60.9193 46.8697C61.2606 47.0353 61.6287 47.1451 61.992 47.2651C62.7968 46.8949 63.5 46.4772 64.1869 45.9468C65.8466 44.665 67.2459 43.1366 68.6123 41.6093C71.9942 37.8291 75.8115 32.9889 75.6611 27.8986C75.5924 25.5695 74.376 23.2996 74.5894 20.9743C74.6878 19.9019 75.1736 18.921 76.1037 18.2215C76.694 17.7774 77.465 17.4872 78.2462 17.5716C81.1778 17.8882 79.8522 23.912 81.0613 25.7933C82.6361 28.2432 87.9418 27.7438 90.0026 30.3089C91.413 32.0644 90.4782 34.5563 90.1481 36.4948C89.6099 39.6536 88.8135 44.8153 90.9964 47.4844C92.1445 46.9484 93.1629 46.0058 94.0617 45.1738L94.079 45.1578C94.9602 44.3339 95.793 43.4723 96.5774 42.5729C97.3616 41.6735 98.0935 40.7409 98.7729 39.7752C101.844 35.4128 104.703 29.4214 109.476 26.3468C111.764 24.8728 113.683 24.8356 115.988 23.8563L116.101 23.8073ZM165.56 47.7104C165.253 48.1852 165.049 48.7632 164.842 49.3471C164.559 50.1453 163.327 52.8099 162.684 53.4959C161.926 54.3043 160.944 55.0419 160.025 55.7015C156.739 58.0596 153.212 59.4954 149.002 59.8472C143.282 60.3249 137.59 58.5094 133.205 55.23C129.485 52.4479 126.833 48.1616 126.418 43.8094C126.085 40.3035 126.234 36.6608 127.225 33.2512C127.471 32.4083 127.77 31.5775 128.07 30.7468L128.071 30.7453C128.27 30.1943 128.468 29.6433 128.651 29.089C128.919 28.2773 128.965 27.7816 129.001 27.3855C129.069 26.6616 129.105 26.27 130.407 24.8887C130.903 24.8638 131.402 24.8667 131.902 24.8696C132.253 24.8716 132.604 24.8736 132.954 24.8659C135.951 24.8007 137.229 23.9247 139.431 22.415C139.524 22.3517 139.618 22.2874 139.714 22.2219C140.633 22.3755 141.3 22.4701 142.226 22.2701C142.934 22.1176 143.897 21.752 144.294 21.1767C144.65 21.1298 145 21.0977 145.356 21.1649C145.36 21.1721 145.366 21.1793 145.371 21.1864C145.381 21.2012 145.392 21.216 145.4 21.2322C145.642 21.7307 145.428 22.7886 145.248 23.2991C144.516 24.048 142.465 25.2383 141.394 25.4767C141.085 25.1122 140.63 24.8094 140.152 24.6503C139.665 24.4882 138.837 24.3743 138.369 24.595C138.001 24.7689 137.722 25.1601 137.621 25.514C137.34 26.4903 138.093 27.2358 138.811 27.9478C139.176 28.3095 139.533 28.6625 139.741 29.0328C140.05 29.5845 139.326 31.5729 139.083 32.1758C138.63 33.3031 137.851 33.5814 136.897 33.9219C136.628 34.0182 136.344 34.1195 136.05 34.2464C135.545 34.4643 135.213 34.8283 135.045 35.3048C134.826 35.9249 134.765 37.0964 135.073 37.6871C135.49 38.4904 136.396 39.1682 137.315 39.8566C138.102 40.4455 138.898 41.0421 139.409 41.7315C140.173 42.7633 140.774 44.1566 141.381 45.5618C141.856 46.6616 142.334 47.7686 142.896 48.7151C144.269 51.0308 146.13 52.9878 149.027 53.7594C152.307 54.6335 156.798 54.2155 159.763 52.7433C161.653 51.8049 163.283 50.1265 163.88 48.2458C164.143 47.4159 164.273 46.2674 163.794 45.481C164.196 45.5062 164.605 45.5216 165.015 45.5372C165.691 45.5627 166.37 45.5884 167.024 45.6577L167.066 45.7712C166.996 46.2668 166.599 46.638 166.206 47.0063C165.964 47.2327 165.724 47.4579 165.56 47.7104ZM113.704 44.9745C113.338 45.1694 112.855 45.2829 112.408 45.3877C112.272 45.4197 112.139 45.4509 112.013 45.4833C110.745 45.1336 109.63 44.4892 108.854 43.5147C107.426 41.7225 107.203 39.2335 107.598 37.1193C108.952 29.8814 113.773 26.6052 121.5 25.3599C121.799 25.3116 122.175 25.2845 122.576 25.2557C123.479 25.1905 124.505 25.1165 125.045 24.771L125.067 24.5992C124.612 24.0271 122.603 23.7603 120.818 23.5234C119.775 23.3849 118.809 23.2567 118.275 23.0835C115.139 22.066 112.564 19.6447 111.198 16.943C110.115 14.8011 109.827 12.2888 110.775 10.0601C112.713 5.50704 118.552 3.37096 122.513 6.55862C121.841 6.25609 121.189 5.98487 120.456 5.81733C118.628 5.39897 116.506 5.67446 114.895 6.55973C113.254 7.46126 112.353 8.87067 111.914 10.5186C111.873 10.6665 111.837 10.8153 111.805 10.9648C111.773 11.1143 111.746 11.2645 111.722 11.4153C111.699 11.566 111.679 11.7172 111.664 11.8689C111.649 12.0205 111.638 12.1724 111.632 12.3246C111.625 12.4767 111.623 12.6289 111.625 12.7811C111.627 12.9334 111.633 13.0855 111.643 13.2374C111.653 13.3894 111.668 13.541 111.687 13.6923C111.706 13.8436 111.729 13.9944 111.756 14.1447C111.783 14.295 111.815 14.4445 111.85 14.5934C111.886 14.7423 111.926 14.8902 111.97 15.0373C112.013 15.1844 112.061 15.3304 112.113 15.4753C112.165 15.6202 112.221 15.7639 112.281 15.9063C112.341 16.0487 112.405 16.1896 112.473 16.3292C112.541 16.4687 112.613 16.6066 112.688 16.7429C112.764 16.8792 112.843 17.0137 112.926 17.1465C113.01 17.2792 113.096 17.41 113.187 17.5388C114.358 19.2306 116.388 20.5888 118.342 21.4795C123.197 23.6934 128.82 22.9064 133.621 20.9996C134.14 20.7931 134.66 20.5617 135.184 20.3287C136.436 19.7711 137.71 19.2044 139.05 18.9485C140.118 18.7445 141.189 18.8201 142.244 19.0489C142.287 19.0584 142.331 19.0676 142.374 19.0769C143.014 19.2137 143.603 19.3394 143.975 19.8859C143.692 20.1988 142.559 20.6062 141.771 20.8897C141.535 20.9745 141.33 21.0482 141.188 21.105C140.305 20.8943 139.498 20.8037 138.583 20.8053C138.285 21.0345 138.013 21.2981 137.74 21.5622C137.351 21.9399 136.96 22.3187 136.491 22.5994C135.254 23.3397 133.732 23.4681 132.237 23.5942C131.503 23.6561 130.185 23.4612 129.5 23.5942C128.316 23.8245 126.909 24.2973 126.076 25.2915C125.345 26.1642 124.85 27.2017 124.366 28.2178C124.341 28.2705 124.315 28.3237 124.29 28.3763C124.181 28.6046 124.072 28.8314 123.96 29.0544C123.308 30.372 122.628 31.6781 121.921 32.9725C121.746 33.314 121.573 33.6565 121.4 33.9992C120.617 35.5499 119.831 37.1057 118.916 38.5944C117.838 40.3481 115.599 43.9664 113.704 44.9745ZM119.758 9.61625C119.768 9.64343 119.777 9.67084 119.786 9.69849C119.288 9.82725 118.766 9.85897 118.267 9.98217C117.81 10.0948 117.361 10.3268 117.141 10.7211C116.996 10.9824 117.005 11.2665 117.127 11.5333C117.415 12.1653 118.203 12.6261 118.89 12.8649C120.116 13.2911 121.657 13.1976 122.848 12.7146C124.195 12.1678 124.727 11.2223 125.237 10.0404C125.768 12.2558 126.717 13.7462 128.655 14.9163C126.365 15.5672 123.484 15.7772 121.182 15.1315C118.507 14.381 116.145 12.5 116.418 10.7886C116.814 8.30328 118.965 7.25946 119.758 9.61625ZM129.696 13.7418C126.265 12.3943 126.088 6.69406 130.338 6.84498C130.531 6.85179 130.722 6.86979 130.911 6.89899C131.101 6.92819 131.287 6.96832 131.471 7.0194C131.655 7.07048 131.834 7.13206 132.009 7.20415C132.548 7.42677 133.046 7.77751 133.231 8.30338C133.417 8.83168 133.205 9.19852 132.943 9.65136L132.926 9.68049C132.5 8.5 131.84 7.59363 130.438 7.4128C129.263 7.2613 128.149 8.23102 128 9.5C127.789 11.2927 129.274 12.4587 130.695 13.155C131.286 13.4449 131.874 13.733 132.361 14.1511C131.434 14.1618 130.554 14.0788 129.696 13.7418ZM169.817 38.752C169.576 38.8792 169.32 39.0477 169.055 39.2223C168.455 39.6175 167.807 40.0442 167.173 40.0962C167.177 39.2231 167.394 38.2605 167.716 37.4403C168.988 34.2009 172.199 33.7745 174.954 33.4085C176.661 33.1818 178.194 32.9782 178.983 32.1433C179.041 32.1845 179.064 32.2243 179.094 32.2773C179.099 32.2861 179.104 32.2954 179.11 32.3051C179.001 32.5778 178.842 32.7566 178.637 32.9761C177.15 34.5676 175.188 36.2205 173.152 37.2324C172.656 37.479 172.142 37.6988 171.628 37.9187C171.015 38.1813 170.401 38.4439 169.817 38.752ZM120.908 7.61303C124.5 8.91519 122.534 11.0058 120.024 11.2765C121 10 121.369 9.59612 120.908 7.61303ZM175.878 37.5337C177.454 36.4798 180.838 33.7336 181.125 31.9735L181.279 32.0908C181.303 32.1965 181.322 32.2853 181.322 32.3937C181.328 33.0127 181.177 33.6791 181.037 34.2839C180.558 36.3565 179.742 37.9339 178.035 39.4345C176.517 40.7686 174.71 41.7046 172.742 42.3932C172.504 42.4766 172.26 42.5567 172.014 42.6374C171.443 42.8251 170.863 43.0154 170.333 43.2545C169.976 43.4149 169.627 43.6444 169.272 43.8772C168.581 44.3302 167.872 44.7954 167.061 44.7873C166.828 44.4809 166.93 43.688 166.993 43.3216C167.334 41.3339 170.265 40.0928 172.835 39.0042C174.024 38.501 175.135 38.0304 175.878 37.5337ZM154.384 29.1242C154.37 29.0814 154.353 29.0393 154.337 28.9968C154.366 28.994 154.396 28.9889 154.425 28.9882C155.005 28.9734 155.822 30.3921 156.387 30.7432C156.881 31.0499 157.672 31.2083 158.239 31.3911C160.167 32.0119 162.232 32.7897 163.677 34.1294C164.887 35.2516 166.161 37.8728 166.029 39.4579C166.006 39.7331 165.866 39.7999 165.651 39.964C165.413 39.9741 165.233 39.8129 165.056 39.675C163.501 38.4587 162.013 37.4133 160.082 36.7013C158.835 36.2417 157.485 35.8802 156.33 35.2528C154.09 34.0362 154.209 32.6215 154.411 30.5337C154.454 30.0968 154.521 29.5475 154.384 29.1242ZM152.461 29.8743C152.462 29.8483 152.461 29.8223 152.46 29.7963C152.46 29.7845 152.459 29.7727 152.459 29.7609L152.672 29.7977C152.819 30.0623 152.814 30.8577 152.809 31.5113C152.807 31.8203 152.805 32.0977 152.82 32.2723C152.899 33.2243 153.104 34.3549 153.748 35.1464C154.672 36.2818 156.317 36.8466 157.864 37.3775C158.449 37.5784 159.02 37.7743 159.532 37.9945C160.971 38.6134 162.532 39.416 163.728 40.3699C164.727 41.1662 165.581 42.2931 165.617 43.5279C165.625 43.79 165.564 44.0886 165.337 44.2729C165.049 44.5081 164.684 44.4866 164.323 44.4556C163.166 43.9777 162.13 43.348 161.092 42.7171C160.376 42.2817 159.659 41.8457 158.901 41.4586C158.18 41.0909 157.418 40.781 156.658 40.4716C155.803 40.1236 154.949 39.7761 154.156 39.3475C153.92 39.2186 153.695 39.0751 153.481 38.9167C153.268 38.7584 153.069 38.5871 152.884 38.4027C151.227 36.7659 150.961 34.1522 151.685 32.1004C151.752 31.9117 151.85 31.686 151.955 31.4461C152.191 30.9065 152.458 30.2953 152.461 29.8743ZM113.251 12.1052C113.387 10.5134 114.097 9.31322 115.442 8.28177C115.666 8.3961 115.278 9.10459 115.234 9.30281C114.899 10.7988 115.192 12.4448 116.145 13.7176C117.235 15.1733 118.989 16.0156 120.857 16.4019C125.1 17.2788 129.25 16.3337 133.367 15.396C134.536 15.1297 135.703 14.8641 136.868 14.6409C138.686 14.2927 140.664 13.9582 142.512 14.3C144.339 14.638 146.755 16.1699 147.761 17.5732C148.033 17.9535 148.234 18.4202 148.104 18.8754C147.956 19.3939 147.519 19.6356 147.039 19.8852C146.873 19.5163 146.111 19.1365 145.728 18.9637C145.722 18.9563 145.716 18.9487 145.711 18.9412C145.701 18.9269 145.69 18.9126 145.678 18.8997C145.23 18.4268 144.308 18.2257 143.585 18.0677C143.457 18.0397 143.335 18.0132 143.223 17.9867C141.923 17.6785 140.595 17.3828 139.239 17.4904C137.862 17.5996 136.609 18.1269 135.374 18.6462C135.316 18.6703 135.259 18.6944 135.202 18.7184C135.13 18.7487 135.058 18.7788 134.986 18.8088C134.767 18.9 134.546 18.9927 134.323 19.0862L134.319 19.0878C131.186 20.4007 127.669 21.8748 124.192 21.6555C121 21.454 117.557 19.7693 115.477 17.6142C113.98 16.0623 113.074 14.1806 113.251 12.1052Z" fill="#003793"/>
</svg>
