<svg width="29" height="25" viewBox="0 0 29 25" fill="none" xmlns="http://www.w3.org/2000/svg">
<path d="M7.58904 1C5.77705 1 4.16274 1.75774 2.94377 2.94377C1.75774 4.12979 1 5.74411 1 7.58904C1 9.40103 1.75774 11.0153 2.94377 12.2343L14.1781 23.4686L25.4124 12.2343C26.5984 11.0483 27.3562 9.43397 27.3562 7.58904C27.3562 5.77705 26.5984 4.16274 25.4124 2.94377C24.2264 1.75774 22.6121 1 20.7671 1C18.9551 1 17.3408 1.75774 16.1218 2.94377C14.9358 4.12979 14.1781 5.74411 14.1781 7.58904C14.1781 5.77705 13.4203 4.16274 12.2343 2.94377C11.0483 1.75774 9.43397 1 7.58904 1Z" stroke="#337069" stroke-width="2"/>
</svg>
