<svg width="28" height="23" viewBox="0 0 28 23" fill="none" xmlns="http://www.w3.org/2000/svg">
<path d="M7.57633 0.0986328C5.76408 0.0986328 4.14953 0.856483 2.93038 2.04268C1.74418 3.22888 0.986328 4.84343 0.986328 6.68863C0.986328 8.50088 1.74418 10.1154 2.93038 11.3346L14.1663 22.5705L25.4023 11.3346C26.5885 10.1484 27.3463 8.53383 27.3463 6.68863C27.3463 4.87638 26.5885 3.26183 25.4023 2.04268C24.2161 0.856483 22.6015 0.0986328 20.7563 0.0986328C18.9441 0.0986328 17.3295 0.856483 16.1104 2.04268C14.9242 3.22888 14.1663 4.84343 14.1663 6.68863C14.1663 4.87638 13.4085 3.26183 12.2223 2.04268C11.0361 0.856483 9.42153 0.0986328 7.57633 0.0986328Z" fill="#337069"/>
</svg>
